<?xml version="1.0" standalone="no"?>
<!DOCTYPE svg PUBLIC "-//W3C//DTD SVG 20010904//EN"
 "http://www.w3.org/TR/2001/REC-SVG-20010904/DTD/svg10.dtd">
<svg version="1.0" xmlns="http://www.w3.org/2000/svg"
 width="612.000000pt" height="408.000000pt" viewBox="0 0 612.000000 408.000000"
 preserveAspectRatio="xMidYMid meet">

<g transform="translate(0.000000,408.000000) scale(0.100000,-0.100000)"
fill="#000000" stroke="none">
<path d="M2837 3919 c-56 -13 -111 -44 -140 -79 -21 -25 -33 -30 -68 -30 -23
0 -59 -5 -80 -12 -35 -10 -40 -16 -45 -50 -7 -38 -27 -51 -38 -23 -6 18 -26
19 -60 4 -28 -13 -41 -51 -27 -78 8 -14 4 -26 -15 -52 -29 -39 -27 -83 6 -106
26 -18 26 -40 0 -48 -31 -10 -43 -42 -35 -94 4 -25 11 -53 16 -63 6 -11 1 -30
-18 -64 -22 -39 -27 -60 -26 -114 2 -108 40 -173 133 -228 38 -23 56 -27 120
-27 87 1 138 22 188 80 65 74 84 176 49 267 -24 61 -99 130 -162 148 -40 11
-49 19 -71 61 -29 58 -54 73 -105 65 -44 -7 -59 7 -35 33 22 24 20 58 -3 78
-20 17 -18 43 4 43 8 0 22 11 33 25 26 33 32 32 32 -8 0 -46 28 -68 97 -79 35
-5 62 -15 68 -25 55 -89 122 -127 225 -128 65 0 82 4 129 30 62 34 93 71 115
138 19 57 13 143 -15 197 -50 100 -172 163 -272 139z m116 -83 c43 -17 93 -76
106 -123 13 -47 13 -49 0 -96 -23 -83 -116 -145 -200 -134 -51 7 -116 52 -141
98 -29 51 -21 145 15 193 52 68 144 94 220 62z m-503 -138 c0 -18 -20 -47 -20
-30 0 6 -7 12 -15 12 -8 0 -15 -5 -15 -12 0 -6 -3 -9 -6 -6 -3 3 1 15 8 27 14
23 48 29 48 9z m665 -88 c3 -5 4 -14 0 -20 -8 -13 -35 -1 -35 16 0 16 26 19
35 4z m-705 -56 c0 -7 -3 -20 -6 -28 -5 -13 -9 -14 -20 -5 -21 17 -17 45 6 45
11 0 20 -6 20 -12z m239 -288 c47 -25 83 -80 89 -136 6 -67 -2 -94 -44 -140
-111 -123 -299 -65 -312 95 -6 69 1 96 35 136 56 66 154 85 232 45z m-3 -357
c10 -17 -13 -36 -27 -22 -12 12 -4 33 11 33 5 0 12 -5 16 -11z"/>
<path d="M1250 3781 c-48 -15 -85 -39 -121 -78 -56 -58 -69 -92 -69 -176 0
-54 -4 -78 -15 -87 -18 -15 -20 -82 -3 -113 6 -12 20 -28 30 -35 10 -8 29 -35
42 -60 13 -26 31 -61 41 -78 28 -47 15 -79 -42 -100 -189 -69 -237 -99 -290
-181 -52 -81 -87 -282 -52 -304 18 -11 1089 -12 1108 0 11 7 11 24 1 102 -28
212 -85 282 -304 369 -81 32 -91 39 -94 64 -4 35 59 166 88 184 43 26 66 127
35 152 -10 8 -15 31 -15 64 -1 118 -44 197 -137 251 -50 30 -152 43 -203 26z
m325 -859 l170 -2 23 -33 c12 -18 22 -36 22 -40 0 -4 -211 -7 -470 -7 -258 0
-470 3 -470 7 0 3 11 21 25 39 22 29 32 33 78 36 53 3 321 3 622 0z m255 -196
c0 -7 3 -27 6 -44 l6 -31 -516 0 c-306 0 -518 4 -521 9 -3 5 -3 25 1 45 l6 35
509 0 c425 0 509 -2 509 -14z"/>
<path d="M4577 3729 c-27 -16 -48 -72 -41 -111 10 -48 31 -67 214 -190 91 -62
186 -126 211 -144 120 -84 182 -85 224 -4 21 41 19 75 -7 105 -13 14 -133 99
-268 190 -202 136 -251 165 -280 165 -19 0 -43 -5 -53 -11z"/>
<path d="M4519 3478 c-9 -7 -58 -75 -110 -151 -52 -76 -122 -177 -156 -225
-80 -111 -81 -129 -10 -177 28 -20 126 -88 217 -151 134 -93 171 -114 195
-112 27 3 46 27 193 241 89 132 162 246 162 255 0 10 -4 22 -8 28 -11 18 -440
304 -455 304 -7 0 -20 -6 -28 -12z"/>
<path d="M4886 2875 c-36 -52 -66 -103 -66 -114 0 -28 27 -44 71 -43 41 2 98
-34 439 -275 25 -17 83 -58 130 -90 47 -32 148 -102 224 -155 137 -96 166
-109 211 -92 37 15 58 103 33 136 -7 9 -82 63 -165 120 -84 57 -285 195 -448
307 -283 195 -295 205 -295 236 0 34 -25 65 -53 65 -8 0 -45 -42 -81 -95z"/>
<path d="M4044 2911 c-58 -35 -64 -118 -12 -161 13 -11 68 -50 123 -88 341
-234 337 -232 374 -232 81 0 139 95 96 157 -14 19 -364 267 -453 320 -46 28
-87 29 -128 4z"/>
<path d="M1890 2391 c-19 -10 -48 -37 -65 -60 -29 -41 -30 -47 -30 -151 0 -94
3 -112 21 -137 40 -54 80 -73 154 -73 37 0 82 3 99 6 30 6 31 9 31 55 0 44 -2
49 -23 49 -16 0 -26 -9 -34 -30 -20 -54 -101 -53 -129 3 -20 37 -30 145 -20
211 10 63 47 106 92 106 29 0 38 -6 56 -35 29 -50 52 -43 56 16 3 45 2 47 -29
53 -62 12 -143 6 -179 -13z"/>
<path d="M2678 2402 c-73 -3 -97 -12 -63 -26 13 -4 15 -35 15 -186 0 -151 -2
-182 -15 -186 -36 -14 -9 -24 65 -24 74 0 101 10 65 24 -13 4 -15 35 -15 185
0 156 2 181 16 189 33 18 8 27 -68 24z"/>
<path d="M2820 2401 c0 -6 9 -15 20 -21 19 -10 20 -21 20 -191 0 -150 -2 -181
-15 -185 -33 -13 -12 -24 45 -24 59 0 83 16 40 27 -19 5 -20 14 -20 161 0 85
2 153 4 151 2 -2 25 -68 51 -146 l47 -143 32 0 c31 0 31 0 86 148 l55 147 3
-130 c3 -136 -2 -195 -18 -195 -6 0 -10 -4 -10 -10 0 -6 33 -10 80 -10 75 0
105 11 60 23 -19 5 -20 14 -20 185 0 155 2 181 17 193 14 12 8 15 -53 20 -38
4 -72 5 -75 3 -4 -2 -26 -60 -50 -129 -24 -69 -46 -125 -49 -125 -3 0 -24 57
-47 128 l-40 127 -82 3 c-49 2 -81 -1 -81 -7z"/>
<path d="M4180 2388 c-5 -13 -36 -97 -69 -188 -33 -91 -69 -175 -80 -188 -12
-13 -21 -26 -21 -28 0 -2 29 -4 65 -4 61 0 84 11 50 24 -16 6 -19 44 -9 84 6
21 11 23 77 20 l71 -3 9 -44 c7 -37 6 -47 -7 -57 -32 -23 -15 -29 69 -26 47 2
85 6 85 9 0 2 -9 12 -19 21 -17 15 -51 118 -127 385 -4 12 -16 17 -45 17 -31
0 -41 -5 -49 -22z m49 -163 c11 -38 18 -72 16 -75 -3 -5 -38 -5 -97 -1 -6 1
13 63 42 136 14 34 13 35 39 -60z"/>
<path d="M4460 2402 c0 -6 9 -16 20 -22 19 -10 20 -21 20 -185 0 -168 -1 -174
-22 -189 -12 -9 -20 -18 -17 -20 4 -4 229 -9 287 -7 8 1 12 20 12 61 0 53 -2
60 -20 60 -11 0 -20 -6 -20 -14 0 -8 -10 -27 -23 -42 -17 -20 -33 -27 -63 -28
l-39 -1 -3 172 c-2 166 -2 172 20 192 l22 21 -65 0 c-35 0 -74 3 -86 6 -14 4
-23 2 -23 -4z"/>
<path d="M2168 2384 c21 -15 22 -20 22 -196 0 -171 -1 -180 -20 -185 -40 -10
-19 -21 48 -25 74 -4 112 0 112 12 0 4 -9 10 -19 13 -16 4 -20 16 -23 76 l-3
71 27 0 c23 0 32 -11 71 -82 l44 -83 62 -3 c63 -3 75 4 42 25 -10 7 -30 36
-44 65 -14 29 -36 64 -48 77 -21 23 -21 24 -3 34 45 26 64 55 64 103 0 39 -5
51 -34 80 l-34 34 -143 0 c-133 0 -142 -1 -121 -16z m211 -40 c14 -18 21 -41
21 -70 0 -55 -26 -84 -75 -84 l-35 0 -1 65 c-3 123 -5 115 35 115 25 0 40 -7
55 -26z"/>
<path d="M3380 2391 c0 -5 7 -11 15 -15 13 -4 15 -35 15 -186 0 -151 -2 -182
-15 -186 -8 -4 -15 -13 -15 -21 0 -13 12 -14 78 -8 42 4 79 8 80 10 2 2 -6 13
-17 24 -20 20 -21 32 -21 186 0 156 1 165 22 185 l22 20 -82 0 c-45 0 -82 -4
-82 -9z"/>
<path d="M3600 2390 c0 -5 6 -10 14 -10 23 0 26 -24 26 -191 0 -146 -2 -161
-20 -179 -11 -11 -20 -22 -20 -25 0 -3 27 -5 60 -5 57 0 78 11 45 24 -12 4
-15 31 -15 151 l0 146 43 -83 c24 -46 65 -118 91 -160 46 -76 49 -78 87 -78
l39 0 0 195 c0 165 2 197 15 201 33 13 12 24 -47 24 l-61 0 22 -23 c20 -22 21
-32 19 -148 l-3 -124 -20 40 c-11 22 -49 88 -84 148 l-63 107 -64 0 c-36 0
-64 -4 -64 -10z"/>
<path d="M833 2373 c-18 -7 -16 -43 2 -63 28 -31 9 -47 -63 -54 -37 -4 -112
-23 -168 -42 -110 -37 -168 -43 -178 -18 -3 8 -10 12 -16 9 -18 -11 -11 -42
12 -57 l23 -15 -35 -79 c-71 -163 -113 -249 -127 -260 -14 -9 -14 -14 2 -38
10 -15 37 -38 60 -51 34 -21 55 -25 116 -25 65 0 79 4 118 30 56 37 90 90 57
90 -8 0 -32 41 -57 98 -23 53 -57 128 -75 166 -19 38 -33 71 -31 72 1 2 47 12
102 24 120 25 235 35 254 22 11 -8 12 -48 1 -261 -9 -172 -10 -255 -3 -262 7
-7 6 -22 -2 -46 -11 -33 -20 -39 -83 -62 -66 -25 -112 -54 -112 -73 0 -4 106
-8 235 -8 190 0 235 3 235 13 0 23 -32 44 -110 70 -66 23 -76 29 -83 56 -4 17
-13 31 -19 31 -6 0 -3 8 6 19 16 17 17 36 11 178 -3 87 -8 199 -11 250 l-5 92
35 6 c38 8 101 1 191 -20 33 -8 77 -17 98 -20 20 -3 37 -11 37 -16 0 -6 -14
-41 -31 -77 -17 -37 -39 -88 -50 -115 -34 -86 -68 -145 -86 -149 -28 -5 39
-72 99 -98 41 -18 62 -21 102 -15 64 8 131 41 163 79 25 30 25 30 4 40 -11 5
-23 18 -27 28 -3 11 -25 61 -49 111 -24 51 -54 117 -68 148 l-25 57 26 19 c19
14 24 24 18 39 -7 18 -8 18 -20 2 -20 -27 -65 -22 -183 18 -59 19 -135 38
-170 41 -57 5 -63 8 -63 29 0 12 5 26 10 29 16 10 12 52 -6 59 -18 7 -43 7
-61 -1z m-344 -306 c13 -28 45 -100 72 -159 l48 -108 -149 0 -149 0 21 48 c11
26 40 88 63 139 24 50 46 101 50 112 10 31 18 26 44 -32z m859 -104 l71 -158
-75 -3 c-40 -2 -107 -2 -147 0 l-74 3 70 158 c39 86 73 157 77 157 4 0 39 -71
78 -157z"/>
<path d="M4646 1839 c-35 -41 -36 -106 -3 -136 18 -16 275 -171 458 -277 25
-14 59 -26 76 -26 60 0 108 68 95 135 -5 30 -36 52 -227 160 -66 37 -161 92
-211 121 -110 66 -148 70 -188 23z"/>
<path d="M2560 1804 c0 -7 9 -14 20 -17 19 -5 20 -14 20 -180 0 -143 -3 -177
-15 -187 -8 -7 -15 -16 -15 -21 0 -5 65 -9 144 -9 l143 0 7 46 c9 69 8 74 -15
74 -13 0 -23 -10 -31 -30 -12 -37 -35 -50 -82 -50 l-36 0 0 180 c0 153 2 180
15 180 8 0 15 6 15 13 0 9 -22 13 -85 12 -56 0 -85 -4 -85 -11z"/>
<path d="M3075 1803 c-4 -10 -33 -92 -66 -183 -33 -91 -68 -177 -79 -192 -11
-15 -20 -30 -20 -33 0 -3 29 -5 65 -5 68 0 79 7 45 28 -23 14 -25 35 -9 81 11
31 12 31 79 31 62 0 68 -2 74 -22 9 -36 7 -88 -4 -88 -5 0 -10 -7 -10 -15 0
-12 16 -15 80 -15 64 0 80 3 80 15 0 8 -5 15 -11 15 -15 0 -34 51 -84 226 -25
86 -47 160 -50 165 -4 5 -23 9 -45 9 -27 0 -40 -5 -45 -17z m49 -159 c9 -34
16 -67 16 -73 0 -7 -20 -11 -50 -11 -27 0 -50 3 -50 8 0 4 12 42 27 85 29 85
33 85 57 -9z"/>
<path d="M3287 1812 c-21 -4 -23 -22 -2 -22 15 0 15 3 79 -235 l43 -160 39 -3
39 -3 27 88 c15 48 32 109 39 136 6 26 15 47 19 47 4 0 13 -24 19 -52 7 -29
22 -90 34 -135 l21 -83 37 0 37 0 63 187 c35 103 71 195 81 205 28 28 22 33
-42 33 -61 0 -70 -6 -46 -30 16 -16 15 -24 -30 -182 -16 -57 -31 -103 -34
-103 -3 0 -16 48 -29 108 -13 59 -30 131 -38 160 -14 49 -16 52 -47 52 l-33 0
-32 -119 c-39 -147 -56 -197 -63 -185 -3 5 -17 59 -32 119 -15 61 -29 116 -31
122 -3 7 5 22 17 33 16 15 18 21 7 24 -14 5 -110 4 -142 -2z"/>
<path d="M4618 1608 c-24 -20 -230 -387 -226 -405 4 -19 435 -272 465 -273 17
0 44 36 137 190 64 105 116 198 116 209 0 24 -19 39 -135 107 -55 31 -149 86
-209 121 -61 35 -115 63 -121 63 -6 0 -18 -6 -27 -12z"/>
<path d="M1685 1368 c-2 -7 -5 -24 -7 -38 l-3 -25 -147 -3 c-145 -2 -147 -3
-167 -29 -20 -25 -21 -37 -21 -470 l0 -444 25 -24 24 -25 336 0 c322 0 336 1
355 20 19 19 20 33 20 474 0 417 -1 455 -17 475 -17 19 -29 21 -178 23 l-160
3 -5 35 c-4 27 -10 36 -28 38 -12 2 -24 -3 -27 -10z m-150 -145 c13 -52 17
-53 175 -53 162 0 180 3 180 30 0 44 9 50 81 50 l69 0 0 -227 c0 -126 1 -322
1 -437 0 -115 -4 -213 -8 -217 -5 -5 -149 -8 -319 -7 l-309 3 -3 443 -2 442
64 0 c61 0 64 -1 71 -27z"/>
<path d="M1712 1074 c2 -13 -13 -21 -62 -36 -36 -10 -75 -17 -87 -15 -25 5
-29 -3 -11 -21 7 -7 16 -8 22 -3 6 5 40 13 74 17 l63 7 -2 -121 -3 -121 -28
-12 c-29 -12 -37 -28 -15 -30 52 -5 147 -3 147 3 0 4 -16 16 -35 26 l-35 18
-3 118 -2 118 65 -6 c41 -3 69 -11 76 -21 10 -14 12 -13 17 4 4 15 -2 20 -27
24 -82 12 -136 32 -136 49 0 10 -5 18 -10 18 -6 0 -10 -7 -8 -16z"/>
<path d="M1499 851 c6 -10 24 -24 41 -31 36 -15 72 -3 90 30 10 19 8 20 -65
20 -71 0 -75 -1 -66 -19z"/>
<path d="M1800 861 c0 -16 52 -51 75 -51 23 0 75 35 75 51 0 5 -34 9 -75 9
-41 0 -75 -4 -75 -9z"/>
<path d="M1493 635 c-3 -9 -2 -19 2 -23 9 -9 389 -15 433 -7 23 4 32 11 32 25
0 19 -8 20 -230 20 -199 0 -231 -2 -237 -15z"/>
<path d="M1503 533 c-7 -2 -13 -13 -13 -23 0 -15 11 -19 73 -25 58 -5 160 -4
275 4 17 1 15 38 -3 44 -18 7 -315 7 -332 0z"/>
<path d="M5066 1141 c-74 -115 -74 -104 -8 -143 31 -19 152 -93 267 -163 342
-209 388 -235 414 -235 86 2 147 123 89 178 -13 11 -72 50 -133 85 -261 152
-455 267 -517 305 l-67 41 -45 -68z"/>
<path d="M4246 1119 c-35 -42 -35 -89 2 -128 23 -26 148 -105 404 -257 77 -46
135 -47 172 -3 27 32 33 70 17 112 -7 17 -54 51 -153 110 -358 212 -393 225
-442 166z"/>
<path d="M4143 650 c-86 -13 -135 -52 -158 -127 l-6 -23 545 0 c300 0 547 3
550 8 7 12 -20 65 -49 94 -15 16 -44 32 -64 37 -47 12 -750 21 -818 11z"/>
<path d="M3920 447 c-35 -18 -51 -54 -43 -102 12 -81 -39 -75 652 -75 372 0
622 4 631 10 11 7 15 27 15 76 -1 113 52 104 -639 104 -454 0 -597 -3 -616
-13z"/>
</g>
</svg>
