<?xml version="1.0" standalone="no"?>
<!DOCTYPE svg PUBLIC "-//W3C//DTD SVG 20010904//EN"
 "http://www.w3.org/TR/2001/REC-SVG-20010904/DTD/svg10.dtd">
<svg version="1.0" xmlns="http://www.w3.org/2000/svg"
 width="500.000000pt" height="500.000000pt" viewBox="0 0 500.000000 500.000000"
 preserveAspectRatio="xMidYMid meet">

<g transform="translate(0.000000,500.000000) scale(0.100000,-0.100000)"
fill="#000000" stroke="none">
<path d="M2102 4710 c-422 -60 -670 -395 -583 -789 11 -52 22 -95 23 -97 2 -1
22 2 44 8 36 10 46 9 75 -8 19 -11 39 -30 45 -42 6 -13 14 -116 18 -237 7
-229 23 -347 55 -420 20 -46 79 -138 92 -143 4 -2 5 -10 2 -18 -3 -8 0 -14 6
-14 6 0 11 -7 11 -15 0 -22 108 -128 122 -119 6 4 8 3 5 -3 -13 -21 145 -90
260 -113 70 -14 96 -10 136 23 l27 23 -37 2 c-66 5 -48 12 29 12 l75 0 7 -77
c9 -107 7 -350 -4 -533 -9 -147 -15 -191 -40 -320 -5 -30 -13 -72 -17 -93 -8
-49 -23 -29 -23 31 0 65 -14 159 -65 429 l-27 141 27 81 27 81 -53 61 c-74 85
-85 89 -119 47 -15 -18 -44 -51 -63 -73 -20 -22 -37 -46 -37 -53 0 -7 18 -42
40 -79 l41 -67 -11 -90 c-14 -121 -30 -389 -30 -500 0 -50 -4 -86 -8 -80 -5 5
-19 36 -31 69 -23 59 -32 84 -50 128 -5 12 -45 114 -89 227 -44 113 -96 246
-115 295 -20 50 -52 126 -72 170 -81 175 -144 345 -154 415 l-7 45 -84 -85
c-63 -63 -103 -94 -153 -118 -37 -17 -70 -32 -72 -32 -2 0 -47 -21 -102 -46
-54 -26 -132 -62 -173 -81 -119 -54 -226 -121 -266 -165 -50 -55 -92 -151
-152 -343 -41 -132 -163 -554 -193 -670 -4 -16 -15 -59 -25 -95 -25 -95 -25
-274 0 -320 38 -70 148 -159 309 -250 l58 -32 157 11 c86 6 167 11 179 11 18
0 23 9 33 57 25 121 86 215 163 252 52 25 94 27 119 4 17 -16 22 -15 81 4 34
11 82 26 107 33 25 6 55 16 68 21 13 5 53 9 90 9 61 0 76 -5 172 -52 78 -40
125 -72 186 -128 45 -41 90 -89 100 -107 l18 -32 71 4 c129 8 479 26 550 28
l70 2 5 173 c3 94 9 172 13 172 4 1 29 -25 55 -57 80 -100 105 -123 172 -167
79 -52 89 -56 165 -66 184 -23 312 47 522 283 133 149 309 369 318 396 8 26
-3 81 -16 81 -5 0 -9 -4 -9 -9 0 -5 -12 -23 -26 -40 -41 -49 -99 -38 -202 36
-83 62 -182 202 -182 260 0 23 43 67 55 56 4 -5 5 3 2 17 -32 155 -35 183 -27
237 4 32 11 86 14 121 l6 62 -190 0 c-237 0 -230 4 -230 -133 0 -52 4 -118 10
-148 5 -30 15 -96 21 -147 l13 -92 118 0 c65 0 118 -3 118 -8 0 -4 -56 -63
-125 -132 -101 -100 -127 -122 -135 -110 -5 8 -10 18 -10 22 0 4 -22 53 -49
110 -27 57 -86 195 -131 308 -150 377 -181 422 -341 498 -46 22 -133 63 -194
92 l-110 52 52 20 c92 34 171 132 202 248 11 43 33 301 26 309 -2 1 -6 -14
-10 -35 -8 -54 -27 -116 -39 -132 -7 -10 -16 1 -36 45 -49 107 -99 128 -295
121 -115 -4 -136 -8 -180 -30 -58 -31 -103 -75 -138 -138 -20 -36 -30 -44 -49
-41 -92 14 -228 145 -258 249 -23 80 -31 180 -25 290 l7 112 73 0 c83 0 80 2
91 -88 15 -140 76 -192 224 -192 154 1 217 54 235 204 8 61 21 71 80 64 25 -3
29 -10 45 -68 44 -158 53 -182 76 -190 12 -5 24 -15 27 -22 4 -10 6 -9 6 2 1
12 19 15 99 15 77 0 104 4 125 18 39 26 67 88 77 175 5 42 11 84 15 92 3 9 -1
24 -8 34 -18 24 -86 34 -234 35 -107 1 -160 -8 -174 -31 -4 -5 -35 -11 -70
-12 -53 -1 -67 3 -88 22 -23 21 -31 22 -210 22 -103 0 -191 -4 -197 -9 -5 -5
-51 -11 -103 -13 l-93 -4 5 39 c3 21 17 55 31 75 14 20 33 57 42 82 22 57 21
179 0 239 l-16 44 257 -9 c319 -11 446 -8 530 11 80 19 87 14 132 -79 40 -82
51 -121 51 -173 0 -54 14 -49 41 14 23 54 25 158 5 208 -8 19 -27 51 -42 70
-23 31 -25 38 -15 66 26 75 -5 161 -78 216 -78 60 -148 74 -391 78 -118 2
-243 0 -278 -5z m298 -910 c16 -16 18 -28 13 -72 -9 -86 -27 -131 -63 -155
-29 -20 -46 -23 -135 -23 -98 0 -102 1 -127 28 -33 36 -48 82 -48 153 0 85 9
89 192 89 134 0 150 -2 168 -20z m519 9 c20 -7 33 -20 38 -37 10 -39 -16 -153
-44 -189 l-24 -33 -108 0 -109 0 -10 28 c-6 15 -20 60 -32 100 -26 90 -16 123
40 133 60 11 216 9 249 -2z m-284 -599 c37 -19 75 -90 75 -143 0 -29 -7 -46
-29 -68 -36 -36 -54 -36 -101 -4 -50 35 -116 36 -161 4 -66 -47 -159 -15 -159
55 0 41 36 112 68 135 15 10 45 23 67 29 56 15 203 10 240 -8z m-494 -407 c13
-16 12 -17 -3 -4 -10 7 -18 15 -18 17 0 8 8 3 21 -13z m54 -21 c-3 -3 -11 0
-18 7 -9 10 -8 11 6 5 10 -3 15 -9 12 -12z"/>
<path d="M2221 3754 c-40 -51 -18 -124 37 -124 27 0 52 36 52 75 0 36 -8 48
-37 64 -29 15 -28 15 -52 -15z"/>
<path d="M2696 3748 c-33 -46 -12 -118 34 -118 20 0 49 25 51 43 3 31 -4 73
-13 85 -16 19 -55 14 -72 -10z"/>
<path d="M2423 3173 c-28 -5 -47 -29 -39 -48 4 -12 27 -15 116 -15 l111 0 -3
27 c-2 19 -10 29 -28 34 -27 8 -122 9 -157 2z"/>
<path d="M2098 3939 c-24 -13 -23 -46 1 -59 21 -11 248 -14 275 -4 21 8 21 60
0 68 -26 10 -258 6 -276 -5z"/>
<path d="M2623 3944 c-7 -3 -13 -19 -13 -35 0 -37 15 -41 149 -37 86 2 106 6
115 21 8 12 8 22 0 35 -9 14 -29 17 -125 19 -63 1 -120 -1 -126 -3z"/>
<path d="M1576 3684 c-25 -24 -19 -37 14 -32 25 4 30 1 30 -15 0 -16 3 -17 15
-7 13 11 12 15 -7 31 -15 13 -25 16 -32 9 -19 -19 -29 -10 -11 10 21 24 14 27
-9 4z"/>
<path d="M1627 3681 c23 -22 39 -28 28 -11 -3 5 -16 15 -28 21 l-22 11 22 -21z"/>
<path d="M1650 3625 c-9 -12 -10 -16 -2 -11 19 11 12 -56 -7 -74 -13 -12 -14
-12 -8 3 3 9 2 19 -3 22 -6 4 -10 -3 -10 -14 0 -27 11 -32 33 -16 14 10 17 24
15 61 -3 44 -4 46 -18 29z"/>
<path d="M2640 3407 c0 -2 6 -10 14 -16 11 -9 16 -9 22 1 4 7 4 10 -1 6 -4 -4
-14 -3 -22 3 -7 6 -13 9 -13 6z"/>
<path d="M2595 3381 c5 -9 2 -12 -11 -8 -11 3 -39 2 -64 -3 -40 -7 -37 -8 37
-9 77 -1 108 8 82 25 -8 4 -9 3 -5 -4 10 -16 -16 -15 -33 1 -11 10 -12 9 -6
-2z"/>
<path d="M4279 2577 c-82 -96 -105 -137 -77 -137 11 0 184 203 196 230 1 3 -6
6 -17 6 -11 0 -51 -39 -102 -99z"/>
<path d="M4513 2594 c-27 -35 -109 -133 -165 -198 -15 -17 -28 -36 -28 -43 0
-22 23 -26 37 -7 7 10 21 28 30 39 32 38 118 140 123 145 14 14 70 90 70 94 0
3 -9 6 -20 6 -10 0 -32 -16 -47 -36z"/>
<path d="M4581 2430 c-12 -17 -51 -64 -88 -106 -42 -48 -62 -79 -56 -85 15
-15 35 -2 83 59 75 94 110 144 104 153 -9 15 -20 10 -43 -21z"/>
<path d="M4012 2433 c-8 -14 -4 -25 19 -52 39 -47 57 -128 41 -187 -15 -57
-15 -74 1 -74 24 0 35 37 35 119 0 82 -18 151 -39 151 -5 0 -8 4 -5 9 3 4 -5
18 -18 30 -23 22 -25 22 -34 4z"/>
<path d="M1775 1090 c-9 -15 15 -42 31 -36 7 3 16 0 20 -6 5 -7 2 -8 -6 -3 -8
5 -11 4 -6 -3 4 -6 13 -9 22 -5 9 3 14 0 12 -8 -2 -10 5 -13 22 -11 17 1 21
-1 11 -7 -17 -11 3 -26 21 -15 7 4 8 3 4 -4 -7 -12 31 -34 65 -37 25 -3 39
-14 34 -28 -3 -7 14 -25 36 -41 22 -15 50 -43 62 -62 23 -35 47 -45 47 -19 0
29 -33 66 -118 132 -67 53 -86 63 -94 52 -8 -11 -9 -11 -5 2 6 17 -36 45 -61
40 -7 -1 -11 4 -10 11 2 7 -3 12 -10 10 -7 -1 -15 5 -18 13 -4 8 -12 15 -20
15 -8 0 -14 5 -14 10 0 13 -17 13 -25 0z"/>
<path d="M1640 986 c0 -7 28 -28 63 -46 89 -48 163 -97 208 -137 21 -19 46
-33 55 -31 13 2 7 13 -27 49 -54 56 -94 83 -113 76 -11 -4 -13 -1 -9 10 5 13
2 15 -12 9 -11 -4 -16 -4 -12 0 8 9 -117 84 -139 84 -8 0 -14 -6 -14 -14z"/>
<path d="M1970 940 c0 -6 7 -10 15 -10 8 0 15 2 15 4 0 2 -7 6 -15 10 -8 3
-15 1 -15 -4z"/>
<path d="M1533 903 c-7 -3 -13 -8 -13 -13 0 -14 120 -69 138 -64 12 4 14 3 4
-4 -10 -7 -5 -12 19 -22 17 -7 39 -21 48 -31 10 -11 22 -15 29 -10 9 6 5 15
-15 38 -35 37 -81 66 -93 58 -6 -3 -10 -2 -10 3 0 6 -12 15 -27 21 -16 6 -37
15 -48 20 -11 4 -26 6 -32 4z"/>
</g>
</svg>
