<?xml version="1.0" standalone="no"?>
<!DOCTYPE svg PUBLIC "-//W3C//DTD SVG 20010904//EN"
 "http://www.w3.org/TR/2001/REC-SVG-20010904/DTD/svg10.dtd">
<svg version="1.0" xmlns="http://www.w3.org/2000/svg"
 width="612.000000pt" height="408.000000pt" viewBox="0 0 612.000000 408.000000"
 preserveAspectRatio="xMidYMid meet">

<g transform="translate(0.000000,408.000000) scale(0.100000,-0.100000)"
fill="#000000" stroke="none">
<path d="M2058 3873 c-20 -5 -26 -67 -8 -78 6 -3 10 -17 10 -29 0 -21 -5 -24
-74 -29 -67 -6 -125 -22 -268 -72 -53 -19 -112 -14 -122 10 -8 22 -26 18 -26
-5 0 -11 11 -27 24 -36 20 -12 23 -20 16 -37 -26 -67 -154 -321 -170 -337 -18
-18 -18 -19 3 -52 13 -18 43 -44 67 -58 38 -21 58 -25 130 -25 71 0 92 4 128
25 24 13 52 38 62 56 24 38 25 44 5 44 -8 0 -15 4 -15 9 0 6 -36 85 -80 177
-44 91 -80 170 -80 174 0 14 254 51 325 48 l70 -3 -1 -70 c-2 -202 -14 -507
-19 -516 -4 -5 -4 -22 0 -37 5 -27 3 -29 -52 -46 -69 -21 -138 -60 -147 -81
-5 -13 25 -15 252 -15 l257 1 -39 34 c-33 29 -71 48 -163 80 -7 2 -13 20 -13
39 0 19 -5 38 -10 41 -7 4 -6 14 1 27 9 16 9 78 3 227 -4 113 -8 231 -9 261
l0 55 95 0 c97 -1 300 -32 300 -46 0 -18 -172 -358 -183 -362 -22 -8 16 -60
67 -92 45 -27 56 -30 142 -30 87 0 95 2 134 30 50 36 81 82 63 93 -6 4 -51 88
-98 187 l-86 179 25 19 c14 10 26 27 26 38 0 24 -5 24 -30 -1 -27 -27 -64 -25
-146 6 -86 32 -218 64 -267 64 -40 0 -59 22 -38 43 15 15 14 70 -1 85 -12 12
-28 13 -60 5z m-342 -420 c42 -87 80 -168 85 -180 l9 -23 -175 0 -174 0 45 93
c25 50 64 131 86 180 23 48 43 87 45 87 2 0 37 -71 79 -157z m907 -28 l87
-175 -176 0 c-137 0 -175 3 -171 13 19 47 162 337 166 337 4 0 46 -79 94 -175z"/>
<path d="M4542 3747 c-26 -12 -62 -74 -62 -106 0 -11 5 -31 11 -45 11 -24 106
-93 438 -319 78 -54 138 -47 182 19 30 46 25 91 -14 128 -60 55 -486 336 -509
335 -13 0 -33 -5 -46 -12z"/>
<path d="M4402 3458 c-108 -147 -302 -451 -302 -473 0 -20 37 -49 233 -181
139 -95 242 -158 257 -158 21 -1 42 25 146 179 67 99 143 209 168 245 78 110
85 100 -187 283 -128 86 -243 157 -255 157 -14 0 -34 -17 -60 -52z"/>
<path d="M910 3354 c-72 -31 -104 -83 -115 -186 -3 -37 -11 -70 -16 -73 -19
-12 -10 -93 14 -122 31 -36 75 -120 82 -155 12 -58 118 -98 178 -67 38 20 67
52 67 74 0 27 44 110 77 146 27 30 41 92 24 112 -6 8 -16 49 -22 93 -14 102
-31 132 -98 167 -63 31 -135 35 -191 11z"/>
<path d="M4833 2875 c-35 -51 -63 -101 -63 -109 0 -30 31 -48 72 -42 43 7 34
12 288 -165 63 -44 126 -88 140 -97 29 -19 362 -251 435 -304 102 -73 143 -83
189 -47 20 16 26 29 26 59 0 52 10 44 -575 444 -143 98 -285 195 -315 216 -46
32 -55 43 -57 70 -2 38 -28 70 -57 70 -15 0 -38 -26 -83 -95z"/>
<path d="M3983 2908 c-13 -6 -32 -30 -43 -53 -34 -69 -20 -90 134 -199 380
-270 396 -278 462 -212 29 29 34 41 34 80 0 55 10 46 -285 250 -220 153 -243
163 -302 134z"/>
<path d="M726 2725 c-94 -36 -144 -74 -170 -130 -16 -33 -46 -161 -46 -196 0
-19 12 -19 486 -19 l487 0 -7 55 c-17 147 -51 217 -125 254 -52 27 -191 75
-197 68 -3 -3 -12 -31 -21 -63 -22 -86 -81 -193 -97 -177 -11 11 -7 105 6 140
15 40 3 53 -50 53 -40 0 -50 -20 -33 -67 14 -39 6 -137 -11 -127 -15 10 -75
140 -89 195 -9 33 -18 49 -28 49 -9 -1 -56 -16 -105 -35z"/>
<path d="M1850 2372 c-53 -26 -81 -90 -81 -185 0 -85 16 -134 55 -165 33 -26
97 -36 151 -25 38 8 40 11 43 51 3 36 0 42 -16 42 -12 0 -24 -11 -32 -30 -10
-24 -19 -30 -41 -30 -33 0 -66 28 -75 64 -3 14 -4 68 -2 121 3 92 5 98 31 121
39 34 64 31 88 -11 30 -49 49 -46 49 9 0 31 -5 46 -16 50 -32 12 -120 6 -154
-12z"/>
<path d="M2150 2372 c-49 -27 -74 -81 -78 -173 -6 -126 36 -194 126 -206 50
-7 123 25 148 63 29 43 32 197 6 256 -32 73 -125 101 -202 60z m109 -31 c44
-44 51 -214 10 -280 -14 -24 -26 -31 -49 -31 -44 0 -62 35 -68 130 -5 95 2
140 29 174 24 31 52 33 78 7z"/>
<path d="M2430 2380 c0 -6 7 -18 15 -26 12 -12 15 -45 15 -164 0 -119 -3 -152
-15 -164 -8 -8 -15 -17 -15 -20 0 -3 32 -6 70 -6 73 0 84 6 50 28 -16 10 -20
23 -20 73 0 60 0 60 27 57 24 -3 32 -13 60 -78 l32 -75 51 -3 c51 -3 62 6 34
29 -8 7 -27 36 -41 63 -14 28 -32 58 -39 67 -13 14 -12 18 10 33 30 19 49 79
38 120 -15 54 -50 70 -167 74 -77 3 -105 1 -105 -8z m180 -45 c6 -8 14 -32 17
-54 5 -33 1 -44 -20 -65 -15 -14 -38 -26 -52 -26 -25 0 -25 1 -25 80 l0 80 34
0 c18 0 39 -7 46 -15z"/>
<path d="M2790 2382 c0 -5 7 -15 15 -22 12 -10 15 -42 15 -166 0 -122 -3 -156
-15 -168 -8 -8 -15 -17 -15 -20 0 -3 32 -6 70 -6 40 0 70 4 70 10 0 6 -5 10
-10 10 -18 0 -31 52 -24 95 6 43 6 43 54 47 64 6 96 29 111 78 15 51 3 96 -34
124 -24 18 -46 22 -133 24 -63 2 -104 0 -104 -6z m184 -54 c19 -27 21 -88 3
-112 -7 -10 -28 -18 -47 -19 l-35 -2 -3 78 -3 77 35 0 c25 0 39 -6 50 -22z"/>
<path d="M3189 2370 c-45 -24 -68 -70 -76 -153 -8 -92 16 -168 62 -197 53 -33
102 -35 155 -8 59 31 80 70 86 160 9 139 -44 219 -145 218 -25 -1 -62 -9 -82
-20z m124 -42 c17 -23 20 -43 21 -132 1 -91 -2 -108 -20 -133 -24 -33 -65 -41
-87 -18 -35 35 -47 139 -26 235 17 80 71 103 112 48z"/>
<path d="M3466 2381 c-3 -5 1 -14 9 -21 12 -10 15 -43 15 -171 0 -94 -4 -160
-10 -164 -25 -16 -5 -25 55 -25 61 0 84 11 50 24 -11 4 -15 22 -15 71 0 58 2
65 20 65 23 0 38 -23 71 -102 l23 -58 48 0 c52 0 58 7 30 34 -11 9 -25 34 -32
56 -7 23 -24 52 -38 65 l-24 24 25 12 c34 15 51 59 44 111 -6 46 -23 63 -77
78 -44 12 -187 13 -194 1z m189 -65 c19 -45 4 -103 -31 -116 -51 -20 -54 -16
-54 70 l0 80 36 0 c30 0 37 -4 49 -34z"/>
<path d="M3955 2378 c-3 -7 -25 -74 -50 -148 -54 -158 -75 -210 -87 -210 -4 0
-8 -4 -8 -10 0 -5 25 -10 55 -10 58 0 66 5 38 25 -14 11 -15 19 -8 51 l10 39
57 3 57 3 11 -42 c10 -37 9 -45 -4 -55 -28 -20 -18 -24 54 -24 72 0 82 4 55
24 -15 11 -43 99 -87 279 l-22 87 -33 0 c-19 0 -36 -6 -38 -12z m55 -220 c0
-5 -20 -8 -44 -8 l-44 0 13 48 c7 26 18 61 25 77 l13 30 18 -70 c10 -38 19
-73 19 -77z"/>
<path d="M4140 2340 c0 -38 4 -50 15 -50 8 0 15 5 15 10 0 14 46 60 60 60 6 0
10 -57 10 -165 0 -138 -3 -167 -15 -171 -35 -14 -10 -24 55 -24 66 0 92 12 55
26 -12 5 -15 33 -15 163 0 87 3 160 6 163 13 14 47 -8 60 -38 23 -54 44 -44
44 21 l0 55 -145 0 -145 0 0 -50z"/>
<path d="M4470 2376 c0 -8 7 -16 15 -20 12 -4 15 -32 15 -166 0 -134 -3 -162
-15 -166 -41 -16 -3 -24 110 -24 l125 0 0 56 c0 63 -15 69 -39 17 -14 -31 -35
-43 -77 -43 -19 0 -23 7 -25 43 -2 23 -3 59 -1 80 3 32 7 37 27 37 14 0 29 -9
35 -20 21 -38 40 -24 40 29 0 57 -15 73 -37 42 -10 -15 -23 -21 -41 -19 -26 3
-27 6 -30 66 l-3 63 48 -3 c39 -2 50 -7 58 -25 5 -13 18 -23 27 -23 15 0 18 9
18 45 l0 45 -125 0 c-100 0 -125 -3 -125 -14z"/>
<path d="M780 2210 l0 -60 -59 0 -58 0 -7 -46 c-3 -26 -6 -222 -6 -435 l0
-389 -25 0 c-23 0 -25 -3 -25 -50 l0 -50 249 0 249 0 7 48 c14 98 50 134 188
191 l47 20 0 66 c0 39 -6 78 -15 95 -24 46 -22 95 9 225 7 30 10 105 8 188
l-4 137 -59 0 -59 0 0 60 0 60 -220 0 -220 0 0 -60z m98 -237 l-3 -58 -57 -3
-58 -3 0 61 0 60 60 0 61 0 -3 -57z m180 0 l-3 -58 -57 -3 -58 -3 0 61 0 60
60 0 61 0 -3 -57z m182 -3 l0 -61 -57 3 -58 3 -3 58 -3 57 61 0 60 0 0 -60z
m-365 -195 l0 -60 -55 0 -55 0 -3 63 -3 63 58 -3 58 -3 0 -60z m180 0 l0 -60
-55 0 -55 0 -3 63 -3 63 58 -3 58 -3 0 -60z m180 0 l0 -60 -55 0 -55 0 -3 63
-3 63 58 -3 58 -3 0 -60z m-357 -192 l-3 -58 -57 -3 -58 -3 0 61 0 60 60 0 61
0 -3 -57z m180 -5 l3 -58 -61 0 -60 0 0 60 0 61 58 -3 57 -3 3 -57z m180 5
l-3 -58 -57 -3 -58 -3 0 61 0 60 60 0 61 0 -3 -57z m-178 -258 l0 -95 -60 0
-60 0 0 95 0 95 60 0 60 0 0 -95z"/>
<path d="M1470 1898 c-65 -18 -110 -80 -110 -151 0 -18 -5 -38 -11 -44 -14
-14 -4 -77 16 -96 7 -8 20 -30 29 -50 19 -48 68 -77 127 -77 55 0 94 26 115
77 8 18 24 43 35 54 19 19 21 29 15 88 -13 130 -43 178 -124 201 -43 12 -45
11 -92 -2z"/>
<path d="M4703 1895 c-26 -18 -47 -77 -39 -110 4 -14 16 -30 28 -36 48 -26
553 -190 576 -187 29 3 58 40 67 84 11 57 -7 67 -313 169 -155 52 -286 95
-290 95 -4 0 -17 -7 -29 -15z"/>
<path d="M2660 1851 c0 -5 7 -11 15 -15 12 -4 15 -32 15 -166 0 -134 -3 -162
-15 -166 -41 -16 -3 -24 110 -24 l125 0 0 56 c0 46 -3 55 -16 52 -9 -2 -22
-19 -28 -38 -10 -33 -13 -35 -56 -35 l-45 0 0 159 c0 119 3 160 13 164 32 10
5 22 -53 22 -36 0 -65 -4 -65 -9z"/>
<path d="M3097 1853 c-2 -5 -28 -79 -56 -165 -29 -86 -61 -168 -72 -182 l-20
-26 55 0 c58 0 67 5 40 24 -13 10 -14 18 -4 55 l11 42 57 -3 56 -3 10 -39 c7
-33 6 -41 -9 -53 -26 -18 -19 -21 55 -23 86 -3 88 -2 64 18 -19 16 -29 43 -74
212 -10 36 -23 84 -29 108 -11 39 -14 42 -46 42 -19 0 -36 -3 -38 -7z m42
-155 l18 -68 -33 -6 c-63 -12 -66 -4 -37 83 15 43 28 73 30 68 1 -6 11 -40 22
-77z"/>
<path d="M3260 1854 c0 -4 7 -12 15 -18 13 -10 72 -225 89 -328 6 -34 10 -38
36 -38 36 0 39 6 75 143 15 59 30 107 34 107 3 0 17 -51 29 -113 31 -146 27
-137 61 -137 26 0 31 5 44 48 73 233 99 312 107 317 24 15 6 25 -45 25 -53 0
-72 -11 -40 -24 20 -7 19 -45 -4 -125 -10 -36 -22 -79 -25 -95 -11 -47 -11
-47 -71 222 -4 17 -12 22 -35 22 -26 0 -30 -5 -40 -42 -21 -83 -60 -222 -64
-225 -2 -3 -13 35 -24 84 -33 141 -34 151 -23 158 26 16 6 25 -54 25 -36 0
-65 -3 -65 -6z"/>
<path d="M4672 1593 c-17 -43 -37 -98 -45 -123 -9 -25 -30 -83 -47 -130 -42
-110 -44 -124 -28 -137 24 -20 438 -154 466 -151 20 2 29 12 39 38 6 19 39
112 73 207 35 99 60 184 58 200 -3 27 -10 30 -218 100 -118 40 -227 72 -242
73 -24 0 -29 -7 -56 -77z"/>
<path d="M1490 1410 c-12 -7 -14 -29 -11 -115 1 -58 -1 -105 -6 -105 -8 0 -33
60 -69 168 -10 28 -22 52 -26 52 -5 0 -44 -14 -88 -31 -51 -19 -88 -41 -104
-60 -31 -37 -56 -117 -56 -181 0 -41 3 -48 23 -53 12 -3 184 -4 382 -3 l360 3
-2 76 c-2 80 -21 136 -60 172 -19 17 -183 92 -187 85 -1 -2 -10 -30 -20 -63
-32 -105 -58 -167 -66 -158 -13 13 -18 146 -6 172 8 19 7 26 -9 37 -22 16 -34
17 -55 4z"/>
<path d="M5166 1254 c-15 -47 -26 -87 -24 -88 1 -1 66 -26 143 -55 77 -29 236
-91 353 -137 213 -84 269 -97 302 -71 31 24 50 62 50 100 0 48 -13 73 -48 91
-33 17 -718 246 -736 246 -8 0 -24 -36 -40 -86z"/>
<path d="M2252 1210 c-22 -21 -22 -22 -22 -423 0 -221 4 -407 8 -413 20 -31
55 -34 342 -34 177 0 299 4 310 10 35 19 40 74 40 458 l0 373 -25 24 -24 25
-304 0 c-291 0 -304 -1 -325 -20z m618 -70 c3 -19 3 -195 0 -390 l-5 -355
-290 0 -290 0 -3 380 c-1 209 0 386 3 393 3 10 67 12 292 10 l288 -3 5 -35z"/>
<path d="M2558 1074 c-4 -20 -76 -44 -131 -44 -33 0 -36 -2 -26 -18 9 -14 5
-32 -20 -86 -35 -77 -31 -100 19 -111 43 -10 86 3 97 28 8 18 4 36 -24 90 -37
74 -38 72 40 81 60 7 61 4 52 -120 -7 -94 -7 -96 -36 -106 -16 -5 -29 -16 -29
-24 0 -11 18 -14 80 -14 86 0 99 10 51 37 -25 15 -29 24 -35 82 -3 37 -6 86
-6 110 l0 43 58 -7 c31 -4 59 -9 61 -11 3 -3 -10 -34 -27 -70 -31 -61 -32 -68
-18 -89 30 -46 127 -38 134 11 2 12 -11 49 -28 83 -26 50 -29 65 -20 76 10 13
8 15 -18 15 -58 0 -130 22 -135 42 -6 22 -34 24 -39 2z m-97 -136 c13 -29 25
-56 27 -60 2 -5 -24 -8 -57 -8 -34 0 -61 2 -61 5 0 11 55 115 61 115 4 0 17
-24 30 -52z m299 -8 l30 -60 -60 0 c-33 0 -60 3 -60 6 0 9 51 114 56 114 2 0
17 -27 34 -60z"/>
<path d="M2370 660 c0 -20 5 -20 207 -18 189 3 208 5 211 21 3 16 -12 17 -207
17 -205 0 -211 -1 -211 -20z"/>
<path d="M2365 570 c-4 -6 -1 -17 5 -25 10 -12 41 -15 144 -15 135 0 163 7
153 34 -5 14 -28 16 -151 16 -90 0 -147 -4 -151 -10z"/>
<path d="M2677 487 c-21 -12 -37 -29 -37 -39 0 -21 20 -24 38 -6 7 7 37 13 68
14 58 2 82 14 69 34 -5 7 -19 10 -37 6 -16 -3 -37 -2 -47 3 -12 7 -28 3 -54
-12z"/>
<path d="M4448 1159 c-19 -7 -32 -24 -44 -54 -24 -65 -8 -84 103 -125 248 -91
459 -160 488 -160 43 0 75 38 75 90 0 44 -19 64 -81 84 -24 8 -149 50 -278 95
-128 45 -234 81 -235 80 0 0 -13 -5 -28 -10z"/>
<path d="M843 970 c-22 -9 -30 -28 -35 -85 l-3 -30 -115 -3 c-63 -2 -121 -5
-127 -7 -9 -3 -13 -34 -13 -110 0 -58 3 -105 6 -105 4 0 61 -11 128 -24 66
-14 146 -27 176 -31 51 -5 56 -4 65 17 17 39 117 38 130 -2 6 -18 12 -20 58
-15 52 6 270 44 295 51 10 3 12 30 10 111 l-3 108 -100 2 c-139 4 -145 6 -145
49 0 24 -8 43 -25 59 -23 24 -29 25 -152 24 -70 0 -138 -4 -150 -9z m267 -54
c6 -8 10 -25 8 -38 -3 -22 -6 -23 -130 -26 l-128 -3 0 34 c0 19 3 37 7 40 3 4
57 7 118 7 86 0 115 -3 125 -14z"/>
<path d="M4243 731 c-36 -17 -93 -80 -93 -103 0 -5 257 -8 570 -8 314 0 570 3
570 6 0 26 -39 79 -75 99 l-42 25 -444 0 c-413 0 -447 -2 -486 -19z"/>
<path d="M550 411 l0 -181 433 2 432 3 3 178 c1 97 -1 177 -5 177 -5 0 -24 -4
-43 -10 -19 -5 -87 -17 -150 -25 -159 -21 -160 -22 -160 -48 0 -34 -19 -47
-70 -47 -51 0 -70 13 -70 47 0 13 -3 23 -7 23 -10 0 -289 47 -330 56 l-33 7 0
-182z"/>
<path d="M954 566 c-3 -8 -4 -25 -2 -38 2 -19 9 -23 38 -23 33 0 35 2 35 35 0
32 -3 35 -33 38 -21 2 -34 -2 -38 -12z"/>
<path d="M4087 562 c-12 -13 -17 -37 -17 -85 0 -55 3 -68 19 -77 23 -12 1249
-14 1268 -2 34 21 38 128 7 163 -16 18 -39 19 -639 19 -590 0 -623 -1 -638
-18z"/>
</g>
</svg>
