<?xml version="1.0" standalone="no"?>
<!DOCTYPE svg PUBLIC "-//W3C//DTD SVG 20010904//EN"
 "http://www.w3.org/TR/2001/REC-SVG-20010904/DTD/svg10.dtd">
<svg version="1.0" xmlns="http://www.w3.org/2000/svg"
 width="612.000000pt" height="408.000000pt" viewBox="0 0 612.000000 408.000000"
 preserveAspectRatio="xMidYMid meet">

<g transform="translate(0.000000,408.000000) scale(0.100000,-0.100000)"
fill="#000000" stroke="none">
<path d="M1625 3815 c-30 -29 -32 -58 -4 -86 14 -14 19 -30 17 -52 l-3 -32
-80 -6 c-97 -7 -143 -18 -271 -63 -132 -47 -189 -59 -214 -46 -11 6 -20 17
-20 24 0 15 -24 28 -34 19 -3 -4 -6 -17 -6 -30 0 -19 9 -28 38 -41 l39 -16
-87 -181 c-48 -99 -101 -212 -120 -252 -18 -40 -39 -73 -48 -75 -28 -6 48 -89
116 -126 141 -77 327 -38 404 85 20 33 20 37 5 48 -9 7 -17 15 -17 18 0 3 -52
112 -116 242 -64 130 -115 237 -113 239 6 4 133 25 244 41 107 15 271 20 278
8 3 -5 -2 -156 -10 -338 -11 -247 -11 -338 -3 -362 9 -27 8 -37 -4 -55 -9 -12
-16 -30 -16 -40 0 -10 -5 -18 -10 -18 -6 0 -46 -14 -90 -31 -75 -29 -140 -74
-140 -98 0 -8 96 -11 325 -11 322 0 326 0 315 20 -16 31 -76 66 -161 97 -44
15 -79 31 -79 35 0 4 -4 18 -10 32 -5 14 -12 194 -15 401 l-6 375 88 0 c82 -1
157 -9 346 -41 71 -12 77 -14 71 -33 -4 -12 -48 -109 -99 -216 -51 -107 -100
-212 -108 -232 -9 -21 -21 -38 -26 -38 -43 0 54 -110 127 -143 69 -32 208 -31
272 2 54 28 97 66 117 105 14 26 14 30 -1 38 -9 5 -16 13 -16 17 0 5 -32 75
-71 157 -39 82 -90 190 -114 239 l-42 91 39 16 c30 13 38 22 38 42 0 33 -20
44 -36 20 -38 -55 -45 -55 -209 3 -138 49 -196 63 -295 71 l-85 7 -3 32 c-2
18 4 43 12 55 52 74 -45 148 -109 83z m-476 -467 c27 -57 76 -159 110 -227 42
-84 58 -127 50 -131 -6 -4 -105 -8 -220 -9 -166 -2 -209 1 -209 11 0 7 20 54
43 103 24 50 72 150 107 223 35 72 65 132 67 132 3 0 26 -46 52 -102z m1121
91 c0 -5 47 -108 105 -229 58 -120 105 -221 105 -224 0 -3 -99 -6 -220 -6
-137 0 -220 4 -220 10 0 5 39 90 86 187 47 98 95 199 107 225 21 45 37 61 37
37z"/>
<path d="M4499 3643 c-35 -21 -62 -78 -54 -113 8 -37 28 -53 185 -153 404
-254 397 -251 450 -198 49 48 52 110 8 150 -11 11 -102 72 -202 134 -345 218
-334 213 -387 180z"/>
<path d="M4385 3393 c-20 -25 -243 -369 -271 -418 -37 -66 -44 -59 236 -240
161 -104 234 -151 248 -159 34 -20 61 5 155 146 165 249 210 328 201 351 -8
22 -512 337 -539 337 -8 0 -22 -8 -30 -17z"/>
<path d="M4858 2788 c-82 -123 -82 -124 -57 -149 17 -17 29 -20 59 -15 44 7
13 26 372 -231 598 -430 570 -413 638 -378 54 28 78 115 45 162 -12 18 -167
121 -452 302 -40 25 -142 91 -227 146 -85 55 -175 112 -201 128 -35 21 -45 32
-40 46 7 25 -31 71 -59 71 -18 0 -36 -19 -78 -82z"/>
<path d="M3972 2824 c-48 -33 -66 -109 -37 -151 8 -12 43 -39 78 -59 34 -21
126 -80 204 -131 226 -147 246 -157 288 -143 25 8 42 24 60 54 30 52 31 75 4
110 -23 29 -41 41 -323 218 -198 124 -228 135 -274 102z"/>
<path d="M675 2625 c-73 -39 -103 -89 -118 -195 -17 -124 -14 -153 15 -191 14
-20 34 -53 42 -74 21 -50 42 -72 88 -96 88 -45 172 -10 225 96 14 28 34 61 44
74 28 35 40 88 27 119 -6 15 -12 50 -13 79 -3 65 -43 139 -92 173 -47 32 -170
41 -218 15z"/>
<path d="M1994 2242 c-73 -35 -114 -120 -114 -238 0 -68 22 -147 49 -178 32
-37 93 -59 154 -58 89 3 111 17 115 75 3 41 1 47 -17 47 -13 0 -21 -9 -26 -30
-8 -35 -28 -48 -68 -44 -73 7 -102 62 -102 194 0 113 22 172 72 196 33 15 40
15 63 3 14 -8 29 -29 35 -47 6 -21 16 -32 27 -32 15 0 18 9 18 54 0 63 -3 65
-100 72 -51 4 -74 1 -106 -14z"/>
<path d="M2260 2237 c0 -7 9 -18 20 -25 19 -11 20 -23 20 -203 0 -184 -1 -191
-20 -196 -13 -3 -20 -12 -18 -22 3 -13 19 -17 91 -19 82 -3 87 -2 87 18 0 11
-7 20 -15 20 -26 0 -35 46 -35 179 0 168 8 222 32 229 10 2 18 11 18 18 0 11
-20 14 -90 14 -66 0 -90 -3 -90 -13z"/>
<path d="M2480 2244 c0 -4 9 -26 19 -48 11 -23 44 -126 74 -231 l55 -190 38
-3 39 -3 28 103 c52 190 97 326 112 338 33 27 17 40 -50 40 -49 0 -65 -3 -65
-14 0 -7 9 -16 20 -19 12 -3 20 -14 20 -27 0 -18 -57 -235 -76 -290 -5 -13
-66 196 -81 278 -5 28 -3 34 16 39 12 3 20 11 18 17 -4 12 -167 22 -167 10z"/>
<path d="M2910 2236 c0 -8 7 -16 15 -20 13 -4 15 -36 15 -201 0 -165 -2 -197
-15 -201 -8 -4 -15 -15 -15 -25 0 -18 7 -20 82 -17 68 2 83 6 86 20 2 9 -5 19
-17 23 -20 6 -21 13 -21 202 0 186 1 195 20 200 11 3 20 12 20 19 0 11 -19 14
-85 14 -66 0 -85 -3 -85 -14z"/>
<path d="M3140 2239 c0 -6 7 -17 15 -25 12 -13 15 -50 15 -206 0 -183 -1 -190
-20 -195 -13 -3 -20 -12 -18 -22 3 -14 23 -16 153 -16 l150 0 3 68 c3 62 1 67
-18 67 -12 0 -20 -7 -20 -18 0 -10 -7 -28 -16 -40 -12 -18 -25 -22 -65 -22
l-49 0 0 195 c0 167 2 195 15 195 8 0 15 7 15 15 0 12 -16 15 -80 15 -50 0
-80 -4 -80 -11z"/>
<path d="M3630 2236 c0 -7 7 -16 15 -20 13 -4 15 -36 15 -201 0 -165 -2 -197
-15 -201 -8 -4 -15 -15 -15 -25 0 -18 9 -19 149 -19 169 0 161 -4 161 86 0 47
-3 54 -19 54 -13 0 -21 -9 -26 -29 -9 -40 -21 -48 -80 -52 l-50 -4 -3 193 c-2
188 -2 194 18 199 46 12 11 28 -68 31 -66 2 -82 0 -82 -12z"/>
<path d="M4142 2233 c-6 -10 -38 -105 -72 -211 -43 -133 -68 -197 -82 -207
-38 -26 -15 -45 51 -45 67 0 85 14 52 40 -21 15 -22 20 -11 59 l11 42 66 -3
c66 -3 66 -3 78 -38 14 -39 10 -60 -11 -60 -8 0 -14 -9 -14 -20 0 -19 7 -20
90 -20 72 0 90 3 90 15 0 8 -9 19 -19 25 -23 12 -39 55 -81 215 -62 238 -56
225 -100 225 -27 0 -42 -5 -48 -17z m49 -180 c10 -43 18 -81 19 -85 0 -5 -24
-8 -54 -8 l-54 0 25 83 c38 123 37 123 64 10z"/>
<path d="M4350 2237 c0 -7 8 -19 18 -28 10 -8 27 -55 40 -109 13 -52 35 -147
51 -210 l27 -115 39 0 39 0 17 60 c9 33 27 99 39 148 13 48 26 85 29 82 3 -4
22 -70 41 -148 l36 -142 35 -3 35 -3 23 98 c45 188 85 318 104 340 27 31 14
43 -49 43 -59 0 -69 -13 -33 -43 11 -10 18 -25 15 -35 -3 -9 -17 -66 -32 -127
-15 -60 -30 -114 -34 -118 -4 -4 -24 59 -45 140 -46 180 -49 185 -83 181 -22
-2 -28 -10 -35 -43 -20 -96 -59 -258 -66 -278 -6 -16 -12 -5 -25 54 -9 40 -24
102 -32 136 -19 85 -18 103 6 103 11 0 20 7 20 15 0 12 -17 15 -90 15 -66 0
-90 -3 -90 -13z"/>
<path d="M515 2009 c-27 -11 -70 -27 -94 -35 -55 -21 -106 -66 -132 -116 -20
-40 -61 -217 -53 -230 3 -5 244 -8 536 -8 l531 0 -5 68 c-7 88 -41 175 -89
227 -32 34 -55 47 -136 75 -54 18 -103 35 -110 37 -7 3 -16 -13 -23 -39 -13
-53 -57 -160 -87 -213 -19 -34 -23 -37 -29 -20 -9 21 -11 167 -3 200 4 18 -2
20 -48 23 -58 3 -60 0 -42 -52 8 -23 7 -53 -3 -116 l-14 -85 -47 95 c-25 52
-53 120 -60 150 -8 32 -20 56 -28 57 -8 0 -36 -7 -64 -18z"/>
<path d="M4365 1634 c-17 -18 -25 -39 -25 -61 0 -47 13 -68 52 -83 18 -7 47
-19 63 -26 59 -26 321 -126 356 -137 19 -5 47 -7 62 -3 29 7 57 51 57 90 0 52
-34 72 -279 161 -128 47 -240 85 -248 85 -8 0 -25 -12 -38 -26z"/>
<path d="M1378 1579 c-103 -86 -258 -229 -258 -239 0 -14 65 -116 101 -158 56
-65 59 -87 59 -421 l0 -301 328 0 c188 0 333 4 342 10 13 8 16 55 20 292 l5
283 65 5 c62 5 67 8 62 39 -1 5 -54 55 -117 111 l-115 101 0 112 c0 166 5 158
-99 155 l-86 -3 -5 -47 -5 -47 -50 45 c-83 75 -146 124 -160 124 -7 0 -46 -27
-87 -61z m207 -759 l0 -135 -125 0 -125 0 -3 138 -3 138 128 -3 128 -3 0 -135z"/>
<path d="M4338 1428 c-9 -7 -27 -40 -41 -73 -99 -230 -137 -332 -133 -351 4
-15 27 -29 78 -49 40 -16 137 -55 216 -87 78 -32 151 -58 162 -58 24 0 24 -1
120 232 47 113 78 200 74 210 -7 23 -38 39 -156 82 -51 18 -135 50 -185 70
-102 40 -112 42 -135 24z"/>
<path d="M433 1306 c-17 -8 -36 -23 -42 -35 -7 -13 -11 -160 -11 -446 l0 -427
28 -28 c19 -19 44 -30 73 -35 24 -3 189 -5 367 -3 l324 3 29 33 30 33 -3 339
c-3 333 -3 339 -25 367 -13 15 -40 54 -60 86 -21 32 -50 73 -65 90 l-26 32
-294 2 c-234 2 -299 0 -325 -11z m611 -55 c14 -15 18 -38 19 -100 0 -46 5 -85
11 -91 6 -5 32 -10 56 -12 l45 -3 3 -312 c2 -302 2 -313 -18 -333 -19 -19 -33
-20 -353 -20 -285 0 -336 2 -355 16 l-22 15 0 411 c0 369 2 413 17 430 15 17
38 18 298 18 265 0 283 -1 299 -19z"/>
<path d="M570 1055 l0 -25 218 2 c209 3 217 4 217 23 0 19 -8 20 -217 23
l-218 2 0 -25z"/>
<path d="M577 903 c-4 -3 -7 -15 -7 -25 0 -17 14 -18 229 -18 127 0 232 4 235
9 4 5 3 16 0 25 -5 14 -34 16 -228 16 -123 0 -226 -3 -229 -7z"/>
<path d="M570 710 c0 -20 5 -20 128 -18 105 3 127 6 127 18 0 12 -22 15 -127
18 -123 2 -128 2 -128 -18z"/>
<path d="M953 710 c-53 -21 -74 -96 -43 -155 11 -21 20 -58 20 -82 0 -47 17
-56 54 -28 16 12 22 12 47 0 42 -22 49 -19 49 24 0 23 9 56 21 76 60 101 -38
209 -148 165z m97 -60 c11 -11 20 -31 20 -45 0 -29 -32 -65 -58 -65 -34 0 -62
29 -62 65 0 57 60 85 100 45z"/>
<path d="M4776 1003 c-39 -95 -41 -103 -26 -103 5 0 101 -40 212 -89 186 -81
259 -115 579 -262 63 -29 120 -49 141 -49 89 0 148 116 99 195 -21 36 -69 57
-528 231 -35 13 -93 36 -130 50 -107 42 -195 75 -238 89 -22 7 -47 16 -56 20
-12 5 -24 -13 -53 -82z"/>
<path d="M4094 940 c-52 -21 -71 -102 -31 -139 12 -12 87 -49 167 -82 80 -33
172 -72 205 -86 130 -57 199 -37 193 57 -4 59 -17 67 -269 167 -236 94 -237
94 -265 83z"/>
<path d="M3853 520 c-33 -20 -53 -48 -53 -74 0 -14 56 -16 535 -16 294 0 535
4 535 9 0 17 -47 76 -70 88 -19 10 -134 13 -470 13 -423 0 -447 -1 -477 -20z"/>
<path d="M3722 378 c-16 -16 -16 -130 0 -146 17 -17 1199 -17 1216 0 7 7 12
39 12 73 0 34 -5 66 -12 73 -17 17 -1199 17 -1216 0z"/>
</g>
</svg>
