<?xml version="1.0" standalone="no"?>
<!DOCTYPE svg PUBLIC "-//W3C//DTD SVG 20010904//EN"
 "http://www.w3.org/TR/2001/REC-SVG-20010904/DTD/svg10.dtd">
<svg version="1.0" xmlns="http://www.w3.org/2000/svg"
 width="500.000000pt" height="500.000000pt" viewBox="0 0 500.000000 500.000000"
 preserveAspectRatio="xMidYMid meet">

<g transform="translate(0.000000,500.000000) scale(0.100000,-0.100000)"
fill="#000000" stroke="none">
<path d="M2576 4723 c-54 -61 -147 -128 -301 -219 -306 -181 -418 -282 -478
-429 -13 -33 -16 -36 -16 -15 0 14 8 48 18 77 10 29 13 49 8 46 -26 -16 -161
-133 -226 -196 -182 -177 -220 -245 -230 -412 l-7 -110 -12 55 c-6 30 -15 79
-19 109 l-8 54 -42 -56 c-136 -179 -201 -400 -175 -598 6 -46 9 -85 7 -87 -6
-6 -33 53 -59 129 l-25 74 -1 -90 c0 -86 16 -207 39 -293 10 -34 8 -49 -13
-103 -13 -35 -33 -91 -44 -124 -11 -33 -34 -91 -52 -129 -27 -60 -30 -73 -19
-93 10 -19 9 -26 -6 -43 -10 -11 -23 -20 -30 -20 -12 0 -35 -63 -35 -97 0 -10
-13 -60 -29 -111 -16 -50 -24 -89 -19 -86 5 3 29 36 52 73 24 36 71 99 105
140 75 90 74 87 115 214 34 104 53 155 94 258 8 21 25 32 79 49 157 52 344
166 463 282 40 38 70 71 68 74 -3 2 -26 -7 -52 -22 -48 -27 -136 -54 -171 -53
-11 0 12 15 52 34 144 67 218 133 320 286 61 92 203 331 203 343 0 2 -21 -4
-47 -14 -46 -16 -143 -34 -143 -26 0 3 25 16 55 30 142 65 247 170 325 326 17
36 36 73 42 83 5 11 7 21 5 23 -4 4 -57 -13 -112 -36 -11 -5 -36 -12 -55 -15
-31 -5 -27 -2 30 31 116 65 247 190 291 277 37 71 70 169 90 262 19 91 25 196
12 194 -5 0 -26 -21 -47 -46z m-387 -457 c-2 -2 -31 -25 -64 -51 -137 -109
-296 -278 -421 -450 -160 -220 -272 -417 -424 -750 -34 -75 -157 -369 -191
-457 -17 -43 -34 -78 -39 -78 -8 0 18 133 43 217 14 46 84 226 112 288 8 17
34 75 58 130 69 154 194 377 291 520 41 60 96 136 106 145 3 3 25 30 50 60 58
73 262 279 303 308 18 12 43 31 55 42 21 20 112 80 121 80 2 0 2 -2 0 -4z"/>
<path d="M0 3144 l0 -377 50 5 c71 7 116 45 161 136 20 40 45 83 56 95 50 54
68 140 39 182 -7 11 -15 52 -18 90 -8 111 -55 182 -148 224 -25 11 -66 21 -92
21 l-48 0 0 -376z"/>
<path d="M1770 2762 c0 -9 9 -23 20 -30 19 -12 20 -23 20 -232 0 -207 -1 -221
-20 -240 -33 -33 -24 -40 45 -40 49 0 65 3 65 14 0 7 -9 16 -20 19 -19 5 -20
14 -20 183 0 97 2 175 5 172 7 -7 107 -212 155 -315 l33 -73 43 0 c39 0 44 3
45 23 0 12 1 125 2 251 2 223 3 229 24 243 39 26 18 43 -53 43 -71 0 -81 -13
-44 -50 18 -18 20 -33 20 -177 0 -140 -2 -155 -15 -137 -8 10 -15 22 -15 26 0
4 -36 82 -81 173 l-81 165 -64 0 c-54 0 -64 -3 -64 -18z"/>
<path d="M2343 2764 c-122 -53 -162 -333 -69 -476 34 -53 81 -78 144 -78 148
0 217 96 216 300 0 108 -18 175 -61 222 -42 47 -159 63 -230 32z m140 -66 c35
-47 51 -129 44 -234 -9 -150 -38 -208 -100 -202 -64 6 -104 122 -94 271 10
141 37 197 96 197 22 0 37 -9 54 -32z"/>
<path d="M2680 2704 c0 -72 1 -75 22 -72 14 2 24 13 29 31 11 41 28 57 60 57
l29 0 0 -225 c0 -214 -1 -225 -20 -237 -44 -28 -23 -38 75 -38 78 0 95 3 95
15 0 8 -7 15 -15 15 -8 0 -16 1 -17 3 -1 1 -4 107 -7 235 l-6 232 32 0 c36 0
63 -29 63 -67 0 -18 6 -23 25 -23 24 0 25 2 25 75 l0 75 -195 0 -195 0 0 -76z"/>
<path d="M3186 2638 c-24 -79 -59 -190 -76 -248 -18 -58 -41 -114 -51 -126
-33 -36 -24 -44 51 -44 65 0 92 12 56 26 -21 8 -25 37 -14 88 l10 46 78 0 c87
0 90 -2 90 -75 0 -26 -6 -47 -15 -55 -29 -24 -14 -30 80 -30 99 0 113 7 74 38
-15 13 -35 76 -83 267 l-62 250 -46 3 -47 3 -45 -143z m94 -96 c11 -46 18 -87
15 -92 -4 -6 -28 -10 -56 -10 -53 0 -60 11 -40 62 5 13 14 43 21 68 7 25 14
51 17 59 7 26 21 -2 43 -87z"/>
<path d="M3540 2761 c0 -11 6 -21 14 -21 8 0 17 -7 20 -16 3 -9 6 -114 6 -235
0 -208 -1 -219 -20 -231 -44 -28 -23 -38 75 -38 53 0 95 4 95 9 0 6 -10 17
-22 26 -20 14 -23 26 -26 105 l-4 90 31 0 c41 0 63 -26 90 -107 44 -133 34
-123 112 -123 52 0 69 3 69 14 0 8 -7 16 -15 20 -9 3 -35 47 -59 98 -23 51
-50 101 -60 110 -16 16 -15 18 14 33 41 21 64 69 63 132 -3 119 -45 145 -245
151 -135 4 -138 4 -138 -17z m231 -41 c23 -13 49 -71 49 -112 0 -36 -24 -84
-49 -98 -11 -5 -36 -10 -55 -10 l-36 0 0 108 c0 60 3 112 7 115 10 11 62 8 84
-3z"/>
<path d="M4034 2768 c-4 -7 2 -18 14 -26 22 -14 22 -19 22 -248 0 -224 -1
-233 -20 -239 -11 -3 -20 -13 -20 -21 0 -11 19 -14 95 -14 98 0 119 10 75 38
-19 12 -20 23 -20 243 0 222 1 231 20 236 11 3 20 14 20 24 0 17 -9 19 -89 19
-58 0 -92 -4 -97 -12z"/>
<path d="M4451 2748 c-29 -91 -114 -377 -121 -403 -9 -41 -38 -95 -50 -95 -6
0 -10 -7 -10 -15 0 -12 14 -15 70 -15 70 0 83 7 55 30 -17 14 -20 66 -5 105
10 25 12 26 87 23 l78 -3 3 -56 c2 -41 -1 -59 -13 -69 -29 -24 -14 -30 80 -30
78 0 95 3 95 15 0 8 -5 15 -11 15 -17 0 -33 52 -95 298 l-58 232 -47 0 c-45 0
-48 -2 -58 -32z m58 -193 c30 -119 31 -115 -34 -115 -59 0 -64 6 -46 52 5 13
14 41 20 63 5 22 13 50 16 63 11 40 22 24 44 -63z"/>
<path d="M4777 2766 c-3 -8 4 -21 16 -29 22 -14 22 -19 22 -241 0 -225 0 -227
-23 -244 -13 -10 -20 -21 -16 -25 4 -4 56 -7 116 -7 l108 0 0 26 c0 23 -3 25
-37 22 l-38 -3 -3 195 c-4 231 1 276 28 283 13 3 18 11 14 21 -8 22 -179 24
-187 2z"/>
<path d="M207 2683 c-28 -91 -85 -206 -102 -207 -5 -1 -16 31 -23 69 -11 54
-12 81 -3 118 6 27 9 53 5 58 -3 5 -23 9 -45 9 l-39 0 0 -194 0 -194 243 -7
c133 -4 269 -5 302 -3 57 3 60 4 63 30 4 34 -32 169 -59 223 -27 52 -65 92
-109 115 -34 18 -183 70 -198 70 -5 0 -21 -39 -35 -87z"/>
<path d="M1143 2414 c-7 -3 -13 -17 -13 -30 l0 -24 120 0 c132 0 146 -6 115
-54 -43 -65 -45 -97 -45 -822 l0 -691 -25 -11 c-19 -9 -174 -12 -553 -12 -508
0 -528 1 -560 20 -18 11 -41 34 -52 52 -20 32 -20 49 -19 723 1 652 0 690 -17
694 -44 8 -44 4 -44 -713 l1 -681 23 -45 c15 -30 38 -55 68 -73 l46 -28 556
-1 c518 0 558 1 583 18 55 35 52 2 53 707 l0 657 114 0 c142 0 143 1 122 102
-26 122 -37 151 -68 180 -30 28 -31 28 -168 28 -75 0 -157 2 -181 5 -24 2 -50
2 -56 -1z m366 -74 c25 -13 51 -81 51 -130 l0 -40 -91 0 -91 0 7 43 c18 116
61 161 124 127z"/>
<path d="M660 2390 c0 -26 5 -27 112 -35 l87 -6 16 31 16 30 -116 0 c-109 0
-115 -1 -115 -20z"/>
<path d="M3513 2022 c-12 -9 -27 -32 -34 -49 -9 -27 -8 -39 8 -69 16 -33 42
-49 268 -165 138 -71 262 -129 277 -129 38 0 74 18 89 47 18 34 15 92 -8 113
-10 10 -106 62 -213 116 -107 54 -215 110 -239 126 -52 33 -114 37 -148 10z"/>
<path d="M297 1934 c-4 -4 -7 -16 -7 -26 0 -17 11 -18 218 -16 209 3 217 4
217 23 0 19 -8 20 -211 23 -115 1 -213 -1 -217 -4z"/>
<path d="M3477 1789 c-24 -14 -249 -465 -245 -493 2 -17 51 -46 233 -139 150
-77 239 -117 255 -115 22 3 41 33 142 228 65 124 117 234 118 246 0 33 8 28
-280 177 -163 84 -209 104 -223 96z"/>
<path d="M297 1693 c-19 -19 -5 -42 29 -49 19 -3 211 -5 425 -2 322 3 392 7
399 18 24 38 2 40 -430 40 -229 0 -420 -3 -423 -7z"/>
<path d="M377 1453 c-84 -4 -88 -5 -85 -26 l3 -22 421 -3 c335 -2 424 0 432
11 29 35 4 38 -344 41 -186 2 -379 1 -427 -1z"/>
<path d="M3922 1274 c-64 -119 -74 -101 104 -196 210 -111 268 -142 705 -379
130 -71 243 -131 252 -135 15 -6 17 7 17 123 l0 128 -282 147 c-156 80 -389
200 -519 267 l-236 121 -41 -76z"/>
<path d="M1000 1263 c-35 -7 -78 -40 -95 -73 -21 -41 -19 -109 5 -148 15 -24
20 -50 20 -98 0 -79 14 -89 66 -45 l37 30 28 -20 c16 -11 31 -24 34 -29 4 -6
15 -10 26 -10 17 0 19 7 19 70 0 52 5 78 20 102 27 44 27 120 0 158 -36 51
-98 75 -160 63z m81 -63 c10 -6 26 -24 35 -41 45 -89 -66 -171 -143 -105 -22
19 -28 32 -28 66 0 34 6 47 28 66 30 25 75 31 108 14z"/>
<path d="M3114 1220 c-34 -13 -54 -50 -54 -97 0 -56 8 -61 314 -217 197 -101
255 -126 275 -121 87 21 112 119 45 176 -35 30 -513 269 -536 268 -13 0 -33
-4 -44 -9z"/>
<path d="M307 1203 c-12 -3 -17 -12 -15 -26 3 -22 6 -22 224 -25 194 -2 223 0
235 14 11 14 10 18 -6 30 -15 11 -62 14 -219 13 -111 -1 -209 -3 -219 -6z"/>
<path d="M2951 693 c-35 -7 -111 -87 -111 -118 l0 -25 585 0 c651 0 608 -5
561 68 -51 81 -24 77 -546 78 -256 1 -476 0 -489 -3z"/>
<path d="M2758 489 c-15 -8 -18 -24 -18 -88 0 -52 4 -82 13 -89 20 -17 1295
-25 1327 -9 23 11 25 19 28 86 5 122 75 111 -682 111 -424 -1 -657 -4 -668
-11z"/>
</g>
</svg>
