<?xml version="1.0" standalone="no"?>
<!DOCTYPE svg PUBLIC "-//W3C//DTD SVG 20010904//EN"
 "http://www.w3.org/TR/2001/REC-SVG-20010904/DTD/svg10.dtd">
<svg version="1.0" xmlns="http://www.w3.org/2000/svg"
 width="612.000000pt" height="408.000000pt" viewBox="0 0 612.000000 408.000000"
 preserveAspectRatio="xMidYMid meet">

<g transform="translate(0.000000,408.000000) scale(0.100000,-0.100000)"
fill="#000000" stroke="none">
<path d="M1848 3879 c-20 -11 -24 -59 -7 -76 6 -6 9 -21 7 -34 -3 -22 -9 -25
-75 -30 -47 -5 -122 -24 -207 -53 -110 -38 -139 -44 -160 -36 -15 5 -29 16
-32 25 -3 8 -10 13 -15 10 -12 -8 1 -37 25 -56 19 -15 17 -21 -77 -214 -54
-108 -97 -203 -97 -209 0 -7 12 -24 27 -39 76 -71 205 -88 302 -39 30 15 63
39 74 53 l19 27 -97 197 c-53 108 -95 198 -93 200 7 7 194 46 260 55 38 4 86
6 109 3 l41 -6 -6 -71 c-4 -39 -9 -181 -11 -316 -3 -150 -9 -246 -15 -248 -6
-2 -10 -10 -10 -17 0 -7 -15 -17 -32 -20 -45 -10 -119 -48 -142 -74 l-19 -21
263 0 263 0 -22 24 c-13 14 -53 37 -90 52 -108 45 -100 17 -106 378 l-6 316
63 0 c35 0 123 -11 197 -25 74 -14 138 -25 143 -25 4 0 -36 -87 -89 -192 -54
-106 -99 -196 -101 -200 -8 -18 72 -88 120 -104 99 -33 240 -1 290 67 l20 26
-102 203 -101 203 25 24 c14 13 26 27 26 32 0 19 -13 17 -35 -5 -30 -30 -43
-30 -130 2 -110 40 -236 74 -277 74 -20 0 -43 3 -52 6 -20 8 -21 38 -1 54 22
18 19 67 -4 80 -24 12 -41 12 -63 -1z m-342 -455 c46 -96 84 -179 84 -185 0
-5 -72 -9 -176 -9 -107 0 -174 4 -172 10 7 20 173 359 176 360 2 0 41 -79 88
-176z m937 -19 l85 -170 -175 -3 c-97 -1 -178 0 -181 3 -3 3 33 85 82 182 49
99 91 172 96 167 5 -5 47 -85 93 -179z"/>
<path d="M4485 3726 c-29 -29 -42 -88 -26 -122 6 -14 60 -56 128 -101 65 -41
177 -114 248 -162 105 -69 137 -85 168 -86 51 0 88 38 94 96 5 46 -10 72 -60
103 -12 7 -111 70 -220 140 -109 69 -211 133 -227 141 -42 22 -77 18 -105 -9z"/>
<path d="M4405 3512 c-14 -9 -314 -449 -328 -479 -6 -14 -7 -31 -1 -43 5 -11
115 -90 244 -175 258 -170 280 -179 320 -127 12 15 50 70 84 122 192 297 216
338 216 367 0 28 -12 38 -157 133 -325 214 -346 225 -378 202z"/>
<path d="M795 3318 c-83 -30 -124 -92 -130 -194 -2 -44 -8 -71 -20 -84 -25
-27 -14 -85 23 -124 16 -17 32 -43 36 -57 8 -36 65 -118 99 -143 34 -25 123
-26 161 -1 27 18 88 111 101 155 4 13 20 37 35 52 39 39 45 73 20 115 -13 23
-20 52 -20 89 0 133 -73 205 -207 203 -37 0 -81 -5 -98 -11z"/>
<path d="M4836 2906 c-76 -118 -77 -120 -63 -139 15 -19 35 -23 64 -13 27 9
64 -17 582 -407 340 -256 356 -267 399 -267 36 0 49 5 73 31 37 40 46 87 24
128 -16 31 -48 54 -380 269 -164 106 -542 355 -565 371 -19 14 -24 26 -22 48
3 32 -18 63 -44 63 -7 0 -38 -38 -68 -84z"/>
<path d="M3945 2907 c-36 -30 -47 -108 -20 -138 33 -35 392 -267 440 -283 25
-9 62 -16 81 -16 67 0 119 84 82 132 -14 17 -81 62 -330 224 -176 114 -205
123 -253 81z"/>
<path d="M630 2663 c-36 -14 -81 -32 -102 -40 -80 -33 -138 -126 -153 -247 -5
-44 -4 -61 7 -67 17 -11 989 -11 1007 0 15 10 10 70 -14 157 -18 62 -78 134
-132 156 -122 50 -184 71 -192 62 -4 -5 -16 -39 -25 -76 -19 -71 -67 -181 -84
-192 -15 -9 -28 142 -13 157 6 6 11 21 11 34 0 21 -4 23 -55 23 -51 0 -55 -2
-55 -23 0 -13 5 -28 11 -34 11 -11 2 -163 -11 -163 -4 0 -19 22 -34 50 -25 46
-39 86 -66 188 -6 23 -16 42 -23 41 -7 0 -41 -12 -77 -26z"/>
<path d="M1671 2411 c-65 -5 -72 -8 -58 -20 15 -11 17 -37 17 -176 0 -136 -3
-164 -15 -169 -8 -3 -15 -10 -15 -16 0 -6 46 -10 125 -10 l125 0 0 55 c0 66
-17 73 -48 20 -21 -34 -58 -52 -87 -41 -12 4 -15 23 -15 81 0 72 1 75 23 75
13 0 34 -12 48 -27 l24 -28 3 54 c5 81 -13 107 -36 55 -9 -18 -19 -24 -35 -22
-20 3 -22 9 -25 71 l-3 67 45 0 c40 0 47 -3 61 -30 23 -44 35 -37 35 20 l0 50
-47 -2 c-27 -1 -81 -4 -122 -7z"/>
<path d="M1900 2410 c0 -6 7 -18 15 -26 22 -22 22 -286 0 -328 -8 -15 -15 -30
-15 -32 0 -2 20 -4 45 -4 42 0 58 11 35 25 -6 4 -10 62 -9 143 0 75 2 133 4
127 2 -5 15 -53 30 -105 41 -143 45 -151 68 -148 17 2 28 25 58 118 21 63 38
123 38 133 1 10 5 16 10 12 5 -3 10 -63 10 -134 1 -103 -2 -131 -14 -141 -27
-22 -16 -30 45 -30 55 0 75 10 50 25 -14 9 -13 328 1 342 21 21 -1 34 -49 29
-26 -3 -50 -5 -53 -5 -4 -1 -10 -13 -14 -28 -18 -75 -58 -193 -64 -188 -3 4
-22 54 -41 113 l-35 107 -57 3 c-38 2 -58 -1 -58 -8z"/>
<path d="M2678 2413 c-26 -4 -41 -23 -18 -23 6 0 10 -63 10 -169 0 -103 -4
-172 -10 -176 -29 -18 0 -25 105 -25 l115 0 0 55 c0 42 -3 55 -15 55 -8 0 -15
-9 -15 -19 0 -25 -45 -61 -76 -61 l-24 0 0 169 c0 144 2 170 16 175 8 3 12 10
9 16 -6 10 -44 11 -97 3z"/>
<path d="M3015 2411 c-28 -12 -62 -51 -74 -84 -6 -16 -11 -67 -11 -114 0 -150
41 -200 157 -191 47 4 61 10 84 36 38 42 52 102 46 188 -9 118 -45 165 -130
171 -28 1 -61 -1 -72 -6z m107 -71 c23 -46 25 -207 3 -250 -28 -53 -83 -51
-109 4 -22 47 -22 205 0 253 15 31 20 34 53 31 30 -2 39 -9 53 -38z"/>
<path d="M3308 2412 c-57 -3 -67 -9 -49 -27 5 -6 30 -60 55 -122 52 -126 58
-181 26 -213 -11 -11 -20 -22 -20 -25 0 -3 32 -5 70 -5 73 0 82 4 53 26 -15
10 -18 25 -16 78 2 54 11 81 48 158 26 51 50 97 56 103 22 22 9 35 -36 35 -45
0 -58 -13 -34 -37 7 -7 2 -30 -17 -77 -14 -36 -30 -68 -34 -71 -6 -4 -60 119
-60 139 0 5 7 14 17 21 22 16 8 21 -59 17z"/>
<path d="M3851 2402 c-4 -9 -20 -57 -35 -107 -15 -49 -30 -97 -33 -105 -3 -8
-22 36 -42 100 l-37 115 -62 3 c-58 3 -82 -8 -47 -22 12 -4 15 -33 15 -171 0
-138 -3 -167 -15 -171 -31 -12 -13 -24 35 -24 48 0 66 12 35 24 -12 4 -15 30
-14 148 l0 143 29 -95 c15 -52 33 -114 40 -137 9 -35 15 -43 34 -43 21 0 28
13 67 133 l44 132 3 -135 c2 -112 0 -137 -13 -146 -26 -19 -17 -24 50 -24 66
0 78 7 50 30 -12 10 -15 42 -15 171 0 140 2 159 17 168 27 14 7 26 -48 28 -37
1 -51 -3 -58 -15z"/>
<path d="M4058 2412 c-26 -3 -41 -22 -18 -22 6 0 10 -63 10 -169 0 -103 -4
-172 -10 -176 -29 -18 1 -25 110 -25 l120 0 0 55 c0 43 -3 55 -16 55 -8 0 -20
-14 -26 -30 -11 -34 -35 -50 -72 -50 -26 0 -26 1 -26 80 0 70 2 80 18 80 22 0
37 -11 45 -32 14 -37 27 -16 27 42 0 64 -14 78 -38 40 -7 -11 -21 -20 -32 -20
-18 0 -20 7 -20 70 l0 70 40 0 c35 0 43 -4 58 -30 26 -46 44 -39 40 18 l-3 47
-90 0 c-49 0 -102 -1 -117 -3z"/>
<path d="M4330 2406 c0 -8 5 -18 10 -21 6 -4 10 -72 10 -171 0 -137 -3 -166
-15 -170 -30 -12 -14 -24 30 -24 42 0 58 11 35 25 -6 4 -10 59 -10 133 l1 127
69 -142 c67 -137 71 -143 100 -143 35 0 31 -19 36 219 2 128 5 146 21 155 16
9 15 11 -12 17 -52 11 -75 10 -75 -5 0 -8 6 -16 12 -18 9 -3 14 -41 16 -123 3
-85 1 -116 -7 -111 -6 4 -38 63 -70 130 -54 114 -61 123 -91 129 -48 10 -60 9
-60 -7z"/>
<path d="M4678 2412 c-14 -3 -18 -14 -18 -54 0 -56 14 -60 40 -12 11 18 26 30
43 32 23 3 26 -1 32 -42 12 -75 -3 -279 -20 -292 -26 -20 -16 -24 55 -24 70 0
87 10 50 30 -19 10 -20 21 -20 170 l0 160 31 0 c25 0 33 -6 42 -30 18 -47 37
-38 37 18 l0 48 -127 -1 c-71 0 -136 -1 -145 -3z"/>
<path d="M2340 2405 c0 -3 7 -13 15 -21 12 -12 15 -46 15 -168 0 -124 -3 -156
-15 -166 -28 -23 -16 -30 50 -30 61 0 84 11 50 24 -11 4 -15 22 -15 76 l0 70
51 0 c43 0 55 5 80 29 25 25 29 37 29 84 0 39 -6 62 -19 78 -18 22 -28 24
-130 27 -61 2 -111 1 -111 -3z m174 -47 c9 -12 16 -38 16 -58 0 -49 -24 -80
-61 -80 l-29 0 0 80 0 80 29 0 c20 0 35 -8 45 -22z"/>
<path d="M857 2112 c-10 -11 -17 -40 -19 -77 l-3 -60 -125 -5 -125 -5 -3 -107
-3 -106 33 -11 c18 -6 60 -15 93 -20 33 -5 102 -19 154 -30 l95 -20 22 24 c18
20 33 25 69 25 52 0 85 -14 85 -35 0 -17 -3 -17 215 27 83 17 156 35 163 40
17 15 17 192 -1 206 -7 6 -64 13 -128 14 l-114 3 -5 61 c-8 96 -4 94 -210 94
-156 0 -179 -2 -193 -18z m327 -45 c13 -9 17 -23 14 -52 l-3 -40 -147 -3 -148
-3 0 45 c0 32 5 48 18 55 26 16 244 14 266 -2z"/>
<path d="M4689 1877 c-36 -27 -50 -88 -29 -126 11 -22 8 -20 270 -111 184 -64
207 -69 233 -59 57 24 72 122 24 154 -37 23 -420 155 -452 155 -16 -1 -37 -6
-46 -13z"/>
<path d="M3014 1833 c-17 -67 -124 -347 -136 -354 -20 -13 -4 -20 48 -20 70
-1 72 -1 45 20 -23 18 -24 21 -12 60 l12 41 59 0 c47 0 60 -3 64 -17 2 -10 7
-28 11 -40 4 -15 -1 -28 -16 -42 -17 -16 -19 -22 -8 -25 8 -3 23 -4 34 -2 11
3 43 5 70 6 45 1 48 2 32 14 -15 12 -72 196 -111 359 -6 24 -11 27 -46 27 -35
0 -40 -3 -46 -27z m41 -129 c9 -32 18 -67 21 -76 5 -15 -1 -18 -40 -18 -34 0
-46 4 -46 15 0 19 42 146 47 142 2 -2 10 -31 18 -63z"/>
<path d="M3466 1852 c-2 -4 -11 -34 -20 -67 -39 -144 -64 -217 -70 -207 -10
17 -46 183 -46 218 0 16 5 35 12 42 9 9 -4 12 -60 12 -40 0 -72 -4 -72 -9 0
-5 4 -11 9 -13 6 -1 31 -84 56 -183 26 -99 48 -182 50 -184 8 -7 57 -3 64 5 5
5 23 62 42 126 18 65 36 115 39 110 4 -4 17 -52 29 -107 31 -136 29 -132 49
-137 26 -7 62 9 62 27 0 30 101 330 116 341 24 19 16 24 -41 24 -59 0 -63 -3
-40 -27 9 -8 14 -23 11 -32 -29 -107 -62 -211 -67 -211 -3 0 -18 55 -33 123
-16 67 -30 130 -33 140 -4 17 -47 24 -57 9z"/>
<path d="M2573 1832 c24 -26 25 -339 2 -348 -8 -4 -15 -12 -15 -20 0 -11 26
-13 135 -12 l135 2 0 63 c0 47 -4 63 -14 63 -8 0 -17 -11 -20 -25 -10 -40 -42
-65 -81 -65 l-35 0 0 166 c0 147 2 168 18 180 15 11 6 13 -62 14 -76 0 -78 -1
-63 -18z"/>
<path d="M580 1515 c0 -172 1 -185 19 -195 13 -6 174 -10 455 -10 382 0 436 2
450 16 13 13 16 45 16 196 l0 181 -42 -6 c-24 -3 -110 -19 -192 -36 -82 -17
-150 -31 -152 -31 -2 0 -4 -6 -4 -14 0 -28 -30 -46 -76 -46 -55 0 -84 14 -84
40 0 11 -3 20 -7 20 -5 0 -84 16 -178 35 -93 19 -178 35 -187 35 -17 0 -18
-15 -18 -185z"/>
<path d="M1010 1645 c0 -34 1 -35 40 -35 39 0 40 1 40 35 0 34 -1 35 -40 35
-39 0 -40 -1 -40 -35z"/>
<path d="M4643 1653 c-11 -10 -39 -70 -62 -133 -23 -63 -51 -135 -61 -160 -31
-76 -34 -113 -12 -133 21 -20 327 -134 382 -143 45 -7 58 7 93 101 14 39 45
117 67 175 56 141 57 143 26 167 -27 21 -364 143 -396 143 -10 0 -27 -8 -37
-17z"/>
<path d="M5081 1318 c-5 -13 -19 -45 -30 -72 -14 -32 -18 -53 -12 -59 5 -5 54
-27 108 -49 111 -45 357 -148 513 -216 63 -27 126 -47 157 -50 48 -4 55 -2 83
26 25 25 30 39 30 76 0 77 -5 80 -421 230 -206 75 -385 136 -397 136 -14 0
-26 -9 -31 -22z"/>
<path d="M1656 1274 c-14 -14 -16 -68 -16 -450 0 -421 1 -435 20 -454 19 -19
33 -20 249 -20 238 0 241 1 241 41 0 5 -97 9 -230 9 l-230 0 0 420 0 420 270
0 270 0 0 -63 c0 -36 5 -68 12 -75 7 -7 39 -12 75 -12 l63 0 0 -335 c0 -325
-1 -335 -20 -345 -16 -9 -18 -15 -10 -30 14 -26 56 -26 70 -1 6 13 10 150 10
378 l0 358 -88 88 -87 87 -292 0 c-252 0 -294 -2 -307 -16z"/>
<path d="M4407 1183 c-40 -11 -62 -108 -32 -149 8 -12 43 -31 77 -44 35 -12
106 -39 158 -59 168 -65 234 -85 263 -77 32 8 67 59 67 98 0 52 -34 72 -268
157 -123 45 -229 80 -235 80 -7 -1 -20 -3 -30 -6z"/>
<path d="M1962 1106 c4 -22 0 -26 -54 -41 -32 -9 -67 -13 -78 -10 -11 4 -20 2
-20 -3 0 -6 5 -12 11 -14 8 -3 4 -18 -10 -46 -11 -22 -21 -45 -21 -49 1 -4 10
9 21 30 11 20 22 37 24 37 10 0 65 -121 60 -130 -4 -6 -33 -10 -67 -10 -55 0
-60 2 -55 20 3 11 1 18 -4 14 -17 -10 -9 -53 13 -68 33 -23 82 -20 115 8 l27
24 -38 77 c-21 42 -36 79 -33 81 3 3 31 8 63 11 l57 6 -6 -113 c-5 -105 -8
-115 -31 -137 -46 -42 -35 -53 49 -53 53 0 75 4 75 13 0 18 -12 33 -37 46 -22
11 -23 18 -23 125 0 62 2 115 5 118 6 6 95 -9 104 -17 3 -3 -9 -35 -27 -71
-40 -80 -40 -99 -2 -119 41 -21 75 -19 106 8 l26 23 -42 84 c-26 51 -38 86
-31 88 6 2 11 10 11 18 0 11 -4 12 -18 3 -13 -8 -31 -7 -75 6 -49 14 -57 20
-57 41 0 18 -5 24 -21 24 -17 0 -20 -5 -17 -24z m204 -169 c13 -26 22 -52 19
-57 -8 -13 -112 -13 -119 -1 -4 5 8 37 25 71 35 67 33 67 75 -13z"/>
<path d="M820 1097 c-42 -15 -70 -63 -70 -123 l0 -41 -114 0 c-62 0 -118 -3
-125 -7 -7 -5 -11 -53 -11 -147 l0 -139 165 0 165 0 0 33 c0 53 8 58 105 58
97 0 105 -4 105 -58 l0 -33 160 0 160 0 0 140 c0 166 4 160 -127 159 -48 0
-96 0 -105 0 -15 1 -18 10 -18 51 0 41 -5 56 -29 82 -28 32 -30 32 -127 35
-61 2 -112 -2 -134 -10z m230 -67 c6 -12 10 -38 8 -58 l-3 -37 -125 0 -125 0
-3 37 c-6 72 4 78 128 78 100 0 110 -2 120 -20z"/>
<path d="M4139 760 c-38 -20 -62 -49 -71 -87 l-6 -23 574 0 c453 0 574 3 574
13 0 29 -43 79 -83 97 -39 18 -69 20 -497 19 -428 0 -457 -1 -491 -19z"/>
<path d="M870 640 c0 -57 2 -61 27 -71 16 -6 41 -7 63 -2 l35 9 3 62 3 62 -66
0 -65 0 0 -60z"/>
<path d="M1777 654 c-4 -4 -7 -13 -7 -21 0 -11 38 -13 203 -11 172 3 202 5
202 18 0 13 -30 15 -196 18 -107 1 -198 -1 -202 -4z"/>
<path d="M502 478 l3 -133 425 0 425 0 3 133 3 132 -161 0 -160 0 -6 -25 c-10
-38 -41 -55 -104 -55 -61 0 -100 23 -100 60 0 19 -8 20 -165 20 l-166 0 3
-132z"/>
<path d="M2195 585 c-29 -28 -31 -61 -10 -123 9 -24 13 -48 9 -53 -3 -6 -3
-21 0 -35 7 -25 7 -25 36 -7 25 14 34 15 50 5 29 -18 30 -17 30 38 0 30 7 61
16 75 50 77 -66 166 -131 100z m104 -36 c13 -24 13 -29 -2 -53 -12 -18 -26
-26 -45 -26 -35 0 -52 17 -52 51 0 60 70 79 99 28z"/>
<path d="M3986 584 c-17 -17 -20 -34 -17 -104 2 -28 9 -50 19 -57 25 -20 1271
-19 1298 1 15 12 19 27 19 79 0 106 65 97 -666 97 -566 0 -639 -2 -653 -16z"/>
<path d="M1775 549 c-15 -24 17 -29 161 -27 125 3 149 5 149 18 0 13 -25 15
-152 18 -103 2 -154 -1 -158 -9z"/>
</g>
</svg>
