<?xml version="1.0" standalone="no"?>
<!DOCTYPE svg PUBLIC "-//W3C//DTD SVG 20010904//EN"
 "http://www.w3.org/TR/2001/REC-SVG-20010904/DTD/svg10.dtd">
<svg version="1.0" xmlns="http://www.w3.org/2000/svg"
 width="612.000000pt" height="408.000000pt" viewBox="0 0 612.000000 408.000000"
 preserveAspectRatio="xMidYMid meet">

<g transform="translate(0.000000,408.000000) scale(0.100000,-0.100000)"
fill="#000000" stroke="none">
<path d="M2170 3830 c-24 -24 -26 -63 -5 -80 8 -7 15 -25 15 -40 0 -27 0 -27
-106 -39 -59 -7 -160 -28 -226 -47 -142 -40 -189 -43 -210 -12 -16 24 -38 17
-38 -13 0 -13 12 -25 35 -35 19 -8 35 -16 35 -19 0 -2 -43 -97 -95 -210 -52
-114 -95 -210 -95 -215 0 -4 -9 -10 -20 -13 -45 -12 0 -80 78 -119 40 -19 63
-23 152 -23 94 0 110 3 155 26 45 24 95 77 95 101 0 6 -9 12 -19 15 -14 4 -45
63 -111 211 -51 114 -94 212 -97 218 -3 7 17 14 54 19 32 4 99 15 148 26 95
20 250 26 260 9 3 -5 -1 -114 -9 -242 -9 -128 -18 -269 -21 -313 -3 -57 -1
-88 9 -107 13 -24 12 -28 -5 -44 -10 -9 -19 -23 -19 -30 0 -23 -29 -42 -97
-64 -63 -21 -113 -52 -113 -72 0 -4 126 -8 280 -8 240 0 280 2 280 15 0 18
-33 41 -80 56 -98 30 -120 41 -120 58 0 10 -12 30 -26 45 -15 14 -22 26 -16
26 22 0 29 57 21 175 -25 372 -29 499 -16 507 25 16 165 7 282 -17 66 -14 132
-25 148 -25 15 0 27 -1 27 -3 0 -2 -36 -84 -81 -183 -44 -98 -88 -196 -97
-216 -10 -23 -24 -38 -34 -38 -49 0 8 -86 79 -121 40 -20 64 -24 148 -24 90 0
106 3 158 29 43 21 63 37 75 63 16 33 16 35 -4 51 -22 18 -209 430 -200 439 3
3 16 11 28 17 14 7 23 21 23 35 0 31 -21 39 -30 12 -10 -32 -74 -27 -211 14
-66 20 -162 41 -220 47 -116 13 -124 21 -84 78 23 33 15 71 -19 89 -28 15 -38
14 -61 -9z m-352 -580 l60 -135 -186 -3 c-101 -1 -187 -1 -189 2 -4 3 125 293
168 378 l21 41 33 -74 c18 -41 60 -135 93 -209z m997 67 c49 -111 87 -203 85
-205 -6 -5 -363 -2 -367 2 -2 2 16 45 40 97 24 52 65 142 92 202 26 59 50 107
54 107 3 0 46 -91 96 -203z"/>
<path d="M4407 3552 c-19 -20 -27 -39 -27 -64 0 -42 -13 -31 259 -232 152
-112 190 -136 218 -136 46 0 83 40 83 89 0 47 -14 60 -248 235 -159 118 -188
136 -221 136 -28 0 -44 -7 -64 -28z"/>
<path d="M4275 3278 c-50 -67 -125 -167 -168 -221 -43 -55 -74 -104 -70 -108
25 -24 410 -309 418 -309 6 0 16 9 23 21 7 11 68 91 136 177 126 162 176 231
176 244 0 8 -395 307 -415 314 -6 3 -51 -50 -100 -118z"/>
<path d="M3925 2906 c-55 -55 -45 -111 31 -169 31 -23 99 -76 152 -117 155
-121 214 -160 240 -160 14 0 38 14 59 35 27 27 34 41 31 66 -3 29 -23 48 -198
182 -273 209 -270 207 -315 163z"/>
<path d="M4667 2833 c-32 -42 -57 -83 -57 -90 0 -27 48 -63 82 -63 35 0 51
-12 619 -456 363 -283 350 -274 395 -274 73 0 116 57 94 124 -9 28 -30 49 -93
94 -83 59 -130 93 -522 378 -356 259 -365 266 -365 292 0 30 -43 72 -73 72
-18 0 -37 -18 -80 -77z"/>
<path d="M760 2494 c-65 -56 -80 -143 -35 -204 34 -47 60 -59 123 -60 89 0
142 53 142 145 0 90 -56 145 -148 145 -40 0 -57 -5 -82 -26z"/>
<path d="M1412 2493 c-71 -35 -103 -137 -63 -201 33 -52 77 -74 140 -69 48 3
58 8 93 45 33 36 38 47 38 89 0 114 -108 185 -208 136z"/>
<path d="M4228 2402 c-49 -1 -88 -6 -88 -10 0 -3 11 -15 24 -27 14 -11 52 -73
85 -139 50 -96 61 -127 61 -167 0 -59 -14 -99 -36 -99 -8 0 -14 -6 -11 -12 2
-9 32 -13 93 -15 91 -1 123 11 81 32 -19 9 -22 20 -25 88 -3 70 0 81 29 134
77 141 94 169 111 181 33 24 19 32 -52 32 -66 0 -92 -12 -55 -26 25 -10 17
-60 -21 -129 -20 -36 -38 -65 -40 -65 -3 0 -23 38 -46 85 -40 83 -40 86 -23
105 11 12 15 24 9 28 -5 4 -48 6 -96 4z"/>
<path d="M2080 2390 c0 -5 4 -10 9 -10 5 0 17 -7 25 -16 13 -13 16 -45 16
-194 0 -186 -3 -210 -26 -210 -8 0 -14 -7 -14 -15 0 -12 17 -15 95 -15 78 0
95 3 95 15 0 8 -7 15 -15 15 -24 0 -35 35 -35 114 l0 76 33 0 c38 0 50 -7 66
-37 6 -13 18 -23 27 -23 12 0 14 14 12 78 -2 60 -6 77 -18 77 -8 0 -21 -12
-28 -27 -11 -24 -19 -28 -53 -28 l-39 0 0 85 0 86 68 -3 c65 -3 68 -4 82 -35
10 -22 22 -33 38 -33 20 0 22 5 22 55 l0 55 -180 0 c-113 0 -180 -4 -180 -10z"/>
<path d="M2600 2397 c0 -1 -12 -34 -26 -72 -14 -39 -46 -131 -71 -205 -25 -74
-54 -142 -64 -152 -34 -29 -23 -38 50 -38 50 0 70 4 74 14 4 9 -3 16 -19 20
-25 7 -31 34 -18 84 6 21 12 22 89 22 l83 0 10 -41 c12 -49 7 -69 -19 -69 -10
0 -19 -7 -19 -15 0 -12 18 -15 100 -15 82 0 100 3 100 15 0 8 -7 15 -16 15
-19 0 -29 25 -99 253 l-58 187 -49 0 c-26 0 -48 -1 -48 -3z m55 -194 l23 -78
-55 -3 c-30 -2 -58 0 -61 3 -3 3 7 44 23 90 18 50 33 81 39 75 5 -5 19 -44 31
-87z"/>
<path d="M2930 2392 c0 -5 9 -17 20 -27 19 -17 20 -31 20 -207 0 -181 -1 -190
-20 -195 -11 -3 -20 -12 -20 -19 0 -11 16 -14 65 -14 66 0 81 11 50 34 -13 9
-15 37 -13 174 l3 164 55 -162 55 -161 35 3 35 3 62 170 62 170 1 -178 c0
-149 -2 -179 -15 -183 -8 -4 -15 -12 -15 -20 0 -11 19 -14 85 -14 88 0 108 11
65 38 -19 11 -20 23 -20 202 0 179 1 191 20 202 36 23 21 29 -61 26 l-82 -3
-46 -125 c-26 -69 -52 -134 -58 -145 -14 -23 -7 -38 -67 140 l-44 130 -86 3
c-47 1 -86 -1 -86 -6z"/>
<path d="M3560 2389 c0 -6 9 -13 20 -16 23 -6 22 5 20 -228 -1 -167 -2 -175
-35 -189 -27 -12 29 -26 103 -26 86 0 99 8 61 39 -19 15 -20 26 -20 201 0 174
1 186 20 202 12 9 21 19 21 22 0 3 -43 6 -95 6 -62 0 -95 -4 -95 -11z"/>
<path d="M3830 2394 c0 -3 9 -13 20 -22 18 -15 20 -29 21 -142 1 -257 1 -261
-21 -267 -11 -3 -20 -12 -20 -19 0 -12 30 -14 173 -12 l172 3 0 70 c0 84 -14
91 -47 25 -21 -40 -28 -46 -69 -54 -81 -16 -79 -22 -79 194 0 179 1 191 20
202 11 7 20 16 20 20 0 5 -43 8 -95 8 -52 0 -95 -3 -95 -6z"/>
<path d="M720 2190 c-79 -6 -119 -31 -148 -93 -19 -40 -60 -203 -92 -365 -15
-74 -5 -108 35 -118 38 -10 71 26 79 84 8 53 45 247 52 275 20 66 24 -33 24
-534 0 -340 4 -557 10 -569 23 -43 117 -43 140 0 6 11 10 153 10 349 0 292 5
367 22 319 3 -7 4 -153 3 -324 -1 -171 2 -321 6 -332 12 -33 53 -55 89 -47 62
14 61 -1 63 596 1 352 6 545 12 547 11 4 97 -297 89 -310 -11 -17 26 -58 51
-58 23 0 65 41 65 64 0 23 93 296 101 296 14 0 11 -16 -31 -180 -110 -431
-106 -410 -90 -420 8 -5 39 -10 68 -10 l52 0 1 -37 c1 -21 1 -121 0 -223 -1
-102 2 -198 7 -215 17 -60 96 -73 120 -20 8 18 12 103 12 260 0 150 4 235 10
235 6 0 10 -88 10 -244 l0 -245 26 -20 c34 -26 54 -26 82 -1 21 20 22 27 22
265 l0 245 33 1 c72 2 96 5 103 12 4 3 -27 139 -69 302 -48 187 -71 295 -64
295 7 0 32 -66 56 -148 24 -81 51 -165 61 -187 10 -22 38 -92 61 -155 23 -63
48 -122 56 -131 10 -12 13 -70 13 -252 0 -201 2 -238 16 -251 18 -19 28 -20
55 -6 17 10 19 22 19 140 0 109 2 130 15 130 13 0 15 -21 15 -130 0 -118 2
-130 19 -140 27 -14 37 -13 55 6 14 13 16 51 17 247 l1 232 25 -90 c14 -49 31
-96 38 -104 18 -18 45 -7 45 19 0 27 -47 206 -63 239 -19 41 -71 61 -160 61
l-77 0 -39 83 c-36 76 -37 84 -23 108 13 23 11 35 -23 145 -87 280 -104 321
-147 361 -37 34 -72 43 -178 43 -126 0 -171 -16 -205 -74 -28 -49 -63 -134
-80 -196 l-12 -45 -31 100 c-38 119 -72 179 -115 202 -34 18 -176 24 -317 13z"/>
<path d="M3186 1758 c-8 -24 -42 -119 -74 -213 -49 -141 -64 -173 -86 -185
-14 -8 -26 -18 -26 -22 0 -5 29 -9 65 -9 36 -1 70 -2 77 -3 22 -2 20 25 -2 31
-20 5 -22 11 -17 51 3 24 11 48 18 53 8 5 44 8 82 7 l67 -2 10 -36 c15 -52 12
-71 -10 -77 -48 -13 -12 -23 80 -23 92 0 123 9 85 24 -22 8 -50 77 -110 271
l-52 170 -46 3 c-45 3 -45 3 -61 -40z m63 -151 c12 -42 21 -82 21 -87 0 -10
-102 -14 -112 -5 -2 3 9 45 26 95 17 49 34 86 37 82 4 -4 16 -42 28 -85z"/>
<path d="M3433 1787 c-3 -5 5 -19 16 -31 12 -13 31 -56 42 -97 53 -195 81
-296 85 -311 4 -14 16 -18 48 -18 l43 0 21 68 c12 37 31 104 43 150 12 45 25
82 29 82 3 0 13 -28 22 -62 9 -35 26 -102 38 -150 l23 -88 43 0 42 0 61 189
c34 104 61 194 61 201 0 6 12 22 27 36 14 13 24 26 22 28 -2 2 -32 6 -66 9
-65 4 -80 -6 -48 -33 8 -7 15 -18 15 -24 0 -25 -84 -286 -90 -279 -4 5 -16 49
-28 98 -12 50 -29 123 -38 163 l-17 72 -39 0 c-21 0 -38 -2 -38 -5 0 -10 -92
-320 -98 -329 -3 -5 -22 58 -43 140 l-38 149 22 17 c12 9 20 19 17 21 -9 9
-172 12 -177 4z"/>
<path d="M2610 1776 c0 -7 9 -16 20 -19 19 -5 20 -14 20 -197 0 -183 -1 -192
-20 -197 -11 -3 -20 -12 -20 -19 0 -11 31 -14 164 -14 91 0 167 4 170 8 2 4 2
36 -1 70 -7 72 -28 82 -48 23 -15 -45 -40 -61 -97 -61 l-48 0 0 190 c0 179 1
191 20 202 36 23 22 28 -70 28 -70 0 -90 -3 -90 -14z"/>
<path d="M4895 1716 c-35 -36 -42 -72 -18 -104 11 -15 67 -52 124 -83 421
-225 403 -218 449 -194 36 19 50 43 50 89 0 52 -29 77 -175 152 -71 37 -172
89 -224 115 -112 58 -166 65 -206 25z"/>
<path d="M1935 1648 c-32 -18 -44 -40 -45 -79 0 -69 58 -111 125 -89 36 12 55
44 55 95 0 61 -80 105 -135 73z"/>
<path d="M363 1586 c-23 -20 -28 -32 -27 -67 3 -80 89 -118 151 -65 39 34 39
98 0 132 -37 32 -87 32 -124 0z"/>
<path d="M4882 1527 c-6 -7 -56 -101 -112 -209 l-100 -196 210 -116 c116 -64
221 -118 233 -121 20 -5 33 12 124 177 128 232 126 229 116 238 -4 5 -44 28
-88 50 -44 23 -132 69 -195 103 -63 33 -126 67 -140 74 -31 16 -35 16 -48 0z"/>
<path d="M342 1393 c-12 -2 -30 -15 -38 -28 -26 -40 -93 -217 -87 -232 3 -7
15 -13 27 -13 18 0 28 14 55 80 19 44 37 80 42 80 7 0 -12 -66 -53 -182 -24
-69 -19 -88 22 -88 l30 0 0 -73 c0 -80 14 -112 46 -105 16 3 20 14 24 87 3 55
9 86 18 89 9 3 12 -15 12 -68 0 -80 11 -110 41 -110 28 0 41 43 36 118 l-4 62
33 0 c34 0 46 15 34 40 -13 25 -61 211 -58 221 2 5 16 -26 31 -70 30 -84 44
-98 73 -76 18 13 18 15 -3 67 -12 29 -31 78 -43 109 -30 81 -45 92 -138 95
-42 1 -87 0 -100 -3z"/>
<path d="M5287 1075 c-20 -35 -37 -70 -37 -77 0 -14 23 -27 290 -178 91 -52
187 -108 215 -127 63 -42 114 -45 150 -8 33 33 34 93 3 122 -13 11 -86 56
-163 100 -172 98 -413 233 -417 233 -2 0 -20 -29 -41 -65z"/>
<path d="M4573 1088 c-50 -24 -59 -118 -16 -159 37 -35 457 -249 488 -249 79
0 128 87 80 140 -17 19 -158 100 -321 186 -49 25 -108 57 -131 70 -45 26 -66
28 -100 12z"/>
<path d="M2587 1033 c-4 -3 -7 -19 -7 -35 0 -21 -6 -31 -26 -38 -23 -9 -25
-14 -22 -57 l3 -48 143 -3 142 -3 0 56 c0 48 -2 55 -20 55 -15 0 -20 7 -20 28
0 15 -5 33 -12 40 -13 13 -169 17 -181 5z m117 -29 c20 -8 21 -43 1 -50 -26
-10 -65 5 -65 25 0 30 25 40 64 25z"/>
<path d="M2393 945 l-23 -16 0 -330 c0 -318 1 -330 20 -349 20 -20 30 -21 296
-18 259 3 276 4 290 22 11 16 14 80 14 347 0 369 5 349 -80 357 l-50 5 0 -32
c0 -29 2 -31 35 -31 l35 0 0 -305 0 -305 -250 0 -250 0 0 305 0 305 36 0 c33
0 35 2 32 28 -3 24 -8 27 -43 30 -25 2 -49 -3 -62 -13z"/>
<path d="M2495 750 c-16 -25 14 -30 191 -30 177 0 184 1 184 20 0 19 -7 20
-184 20 -113 0 -187 -4 -191 -10z"/>
<path d="M2492 633 c3 -16 20 -18 188 -18 168 0 185 2 188 18 3 16 -11 17
-188 17 -177 0 -191 -1 -188 -17z"/>
<path d="M4352 583 c-37 -18 -82 -71 -82 -96 0 -16 41 -17 500 -17 356 0 500
3 500 11 0 22 -33 65 -68 89 l-37 25 -390 2 c-346 3 -394 1 -423 -14z"/>
<path d="M2492 513 c3 -16 16 -18 123 -18 100 0 120 3 120 15 0 12 -22 15
-123 18 -114 2 -123 1 -120 -15z"/>
<path d="M2799 463 c-24 -32 -44 -60 -46 -62 -1 -2 -14 6 -29 18 -28 22 -44
20 -44 -7 0 -22 64 -74 82 -66 22 9 109 134 106 151 -6 32 -26 23 -69 -34z"/>
<path d="M4201 414 c-28 -36 -29 -106 -1 -134 20 -20 33 -20 558 -20 295 0
547 3 559 6 27 8 46 66 37 113 -13 63 6 61 -590 61 l-543 0 -20 -26z"/>
</g>
</svg>
